<?xml version="1.0" standalone="no"?>
<!DOCTYPE svg PUBLIC "-//W3C//DTD SVG 20010904//EN"
 "http://www.w3.org/TR/2001/REC-SVG-20010904/DTD/svg10.dtd">
<svg version="1.0" xmlns="http://www.w3.org/2000/svg"
 width="1920.000000pt" height="1080.000000pt" viewBox="0 0 1920.000000 1080.000000"
 preserveAspectRatio="xMidYMid meet">

<g transform="translate(0.000000,1080.000000) scale(0.100000,-0.100000)"
fill="#000000" stroke="none">
<path d="M1674 10778 c48 -68 50 -75 21 -134 -32 -65 -53 -81 -133 -97 -92
-19 -88 -30 9 -25 137 9 205 68 203 178 -1 65 -27 99 -78 100 -38 0 -38 0 -22
-22z"/>
<path d="M8540 10785 c-39 -46 -41 -126 -6 -180 35 -53 78 -75 165 -82 58 -4
81 -3 81 6 0 6 -13 11 -28 11 -60 0 -122 30 -148 72 -36 57 -42 103 -17 136
36 51 36 52 0 52 -19 0 -40 -7 -47 -15z"/>
<path d="M10630 10758 c16 -22 30 -50 30 -60 0 -11 -14 -44 -32 -73 -29 -49
-37 -55 -88 -69 -31 -9 -66 -16 -78 -16 -11 0 -24 -5 -28 -11 -5 -9 16 -10 77
-7 136 7 203 62 204 168 0 78 -22 110 -75 110 l-40 0 30 -42z"/>
<path d="M17473 10773 c-11 -17 -17 -46 -18 -82 0 -63 25 -107 82 -142 39 -24
176 -39 187 -20 5 7 -2 11 -20 11 -80 0 -148 42 -179 110 -21 46 -15 76 21
119 l26 31 -41 0 c-33 0 -44 -5 -58 -27z"/>
<path d="M4345 10688 c-96 -49 -145 -130 -145 -241 0 -52 6 -79 24 -116 28
-54 83 -106 135 -129 47 -19 156 -19 203 1 56 24 124 92 145 145 22 57 22 153
0 203 -22 53 -81 114 -132 138 -61 29 -174 29 -230 -1z m174 -108 c54 -29 62
-191 11 -232 -22 -18 -92 -24 -125 -12 -27 11 -45 60 -45 124 0 95 26 129 98
130 24 0 51 -4 61 -10z"/>
<path d="M4430 10531 c-5 -11 -10 -43 -10 -71 0 -60 13 -90 40 -90 27 0 40 30
40 90 0 60 -13 90 -40 90 -11 0 -24 -9 -30 -19z"/>
<path d="M13282 10684 c-91 -45 -142 -131 -142 -237 0 -106 52 -187 154 -239
64 -33 168 -29 236 8 93 51 146 147 137 250 -8 105 -68 190 -162 230 -57 24
-162 18 -223 -12z m158 -234 l0 -120 -25 0 c-25 0 -25 0 -25 95 l0 95 -25 -10
c-21 -8 -25 -7 -25 9 0 12 13 24 38 34 64 26 62 29 62 -103z"/>
<path d="M5757 10672 c-25 -27 -21 -35 8 -16 25 16 33 34 17 34 -5 0 -16 -8
-25 -18z"/>
<path d="M5980 10680 c0 -9 32 -30 46 -30 4 0 -1 9 -11 20 -19 21 -35 26 -35
10z"/>
<path d="M14702 10678 c-7 -7 -12 -19 -12 -27 0 -11 4 -10 20 4 21 19 26 35
12 35 -4 0 -13 -5 -20 -12z"/>
<path d="M14930 10682 c0 -5 9 -17 20 -27 23 -21 27 -4 4 19 -17 18 -24 20
-24 8z"/>
<path d="M3286 10571 c-4 -5 -9 -31 -12 -58 -3 -26 -12 -65 -21 -85 -9 -20
-13 -48 -11 -62 4 -22 1 -25 -26 -29 -29 -4 -29 -4 6 -5 20 -1 49 -9 65 -16
15 -8 35 -17 44 -20 10 -3 18 -20 22 -46 11 -86 47 -77 55 14 4 50 7 55 31 59
l26 4 -25 2 c-23 1 -25 4 -22 44 3 48 -11 70 -53 84 -26 8 -30 15 -33 54 -4
56 -29 88 -46 60z"/>
<path d="M12225 10569 c-4 -6 -9 -38 -12 -72 -3 -34 -11 -65 -16 -69 -6 -4
-11 -25 -11 -47 -1 -38 -3 -41 -28 -41 -19 0 -28 6 -31 20 -4 17 -4 16 -3 -2
1 -20 8 -24 48 -28 27 -3 53 -11 60 -18 7 -7 22 -12 34 -12 18 0 22 -7 28 -49
11 -85 55 -72 64 19 4 40 8 50 26 53 20 4 20 4 -1 6 -20 1 -23 6 -23 46 0 49
-25 85 -59 85 -15 0 -19 10 -24 52 -7 58 -34 87 -52 57z"/>
<path d="M5796 10515 c-64 -23 -69 -32 -48 -94 l18 -53 120 -1 121 -2 16 54
c9 30 14 58 10 63 -3 6 -24 19 -47 29 -49 22 -134 24 -190 4z"/>
<path d="M14732 10513 c-24 -8 -46 -22 -49 -30 -3 -7 2 -37 11 -66 l16 -52
120 0 120 0 15 52 c8 28 12 58 9 66 -15 41 -161 59 -242 30z"/>
<path d="M1015 10484 c-19 -16 -19 -16 9 -11 15 2 53 -1 83 -8 58 -13 91 -44
139 -124 27 -46 19 -76 -39 -162 -39 -59 -46 -65 -102 -81 -111 -33 -162 -39
-206 -24 -21 8 -39 11 -39 7 0 -4 24 -15 53 -26 63 -23 193 -23 257 0 100 35
190 140 190 220 0 86 -61 177 -138 208 -56 22 -179 23 -207 1z"/>
<path d="M2030 10448 c-121 -60 -115 -57 -109 -62 2 -2 39 12 83 31 l78 35
105 -13 c73 -9 113 -19 129 -32 13 -10 58 -61 101 -114 54 -67 76 -102 75
-121 -1 -28 -22 -71 -102 -203 -47 -79 -56 -87 -110 -105 -55 -19 -297 -74
-322 -74 -13 0 -47 11 -76 25 -66 31 -84 32 -48 4 15 -12 71 -37 124 -56 l97
-35 120 17 c66 9 134 18 150 21 17 2 72 31 123 65 97 63 118 87 191 222 42 78
41 116 -8 197 -22 36 -53 88 -70 115 -64 107 -95 120 -308 130 l-118 5 -105
-52z"/>
<path d="M7958 10490 c-135 -16 -146 -24 -235 -165 -71 -113 -83 -139 -83
-179 0 -49 90 -217 141 -262 59 -53 160 -114 196 -119 21 -3 89 -12 152 -21
l113 -16 97 38 c53 20 107 48 121 61 24 23 21 22 -42 -7 -37 -16 -79 -30 -92
-30 -28 0 -196 40 -299 71 -54 16 -70 26 -80 47 -6 15 -23 45 -37 67 -42 68
-49 78 -75 128 -14 27 -25 57 -25 68 0 22 55 104 109 164 20 22 44 51 53 63
14 20 32 26 125 40 l108 15 89 -41 c96 -45 100 -47 91 -33 -3 5 -56 35 -118
65 -123 61 -146 65 -309 46z"/>
<path d="M9040 10482 c-46 -22 -60 -37 -98 -100 -53 -87 -40 -167 40 -252 47
-51 116 -81 212 -93 66 -8 87 -7 109 5 27 13 24 15 -86 42 -96 23 -117 32
-134 55 -27 36 -83 147 -83 164 0 7 25 45 55 84 58 75 73 83 164 83 45 1 45 1
21 15 -35 20 -156 18 -200 -3z"/>
<path d="M9960 10484 l-25 -14 30 2 c17 1 53 -1 82 -6 45 -7 56 -14 90 -54 87
-105 88 -113 23 -223 -42 -71 -45 -73 -130 -96 -113 -30 -149 -33 -190 -19
-22 8 -40 10 -40 6 0 -5 15 -12 32 -16 18 -3 47 -14 65 -22 43 -20 180 -5 248
28 85 41 146 118 159 201 5 27 -1 49 -24 97 -35 70 -74 107 -128 122 -55 15
-163 12 -192 -6z"/>
<path d="M10947 10434 c-70 -37 -125 -69 -123 -71 3 -3 17 2 33 11 15 8 59 29
97 47 l70 31 115 -15 c128 -17 106 -3 224 -152 35 -44 67 -89 70 -99 9 -23
-17 -80 -95 -208 -38 -62 -67 -99 -81 -103 -12 -4 -31 -10 -42 -15 -25 -11
-291 -70 -317 -70 -10 0 -48 14 -85 30 l-67 31 24 -26 c13 -14 28 -25 34 -25
6 0 23 -6 37 -14 15 -7 57 -24 94 -36 61 -20 74 -21 139 -11 39 6 106 16 148
21 70 8 86 15 162 65 73 48 105 77 144 130 7 10 39 68 67 121 22 43 19 110 -7
153 -58 97 -128 198 -150 218 -30 28 -100 42 -248 49 l-115 5 -128 -67z"/>
<path d="M16904 10490 c-142 -15 -144 -17 -255 -190 -52 -82 -54 -87 -54 -155
0 -64 3 -75 40 -134 22 -35 46 -73 52 -86 7 -12 24 -30 39 -41 14 -10 45 -33
68 -50 63 -48 117 -74 151 -74 16 0 78 -7 136 -16 l107 -16 107 43 c58 24 111
51 116 61 8 14 -3 12 -53 -12 -35 -17 -74 -30 -88 -30 -42 0 -343 78 -357 93
-20 20 -153 248 -159 274 -7 28 37 94 156 234 21 25 38 31 110 44 120 21 133
19 213 -21 40 -19 83 -40 97 -45 51 -19 -12 20 -122 77 -117 59 -135 62 -304
44z"/>
<path d="M17990 10484 c-38 -16 -90 -61 -90 -78 0 -5 -7 -17 -16 -27 -25 -28
-36 -93 -23 -143 14 -57 85 -137 146 -166 67 -31 184 -46 235 -29 l39 12 -111
27 c-70 17 -119 35 -133 48 -12 12 -40 55 -61 97 l-39 76 36 52 c65 94 88 111
162 115 58 4 63 6 48 18 -25 18 -149 17 -193 -2z"/>
<path d="M1880 10370 c-8 -5 -10 -10 -5 -10 6 0 17 5 25 10 8 5 11 10 5 10 -5
0 -17 -5 -25 -10z"/>
<path d="M5730 10305 c0 -43 3 -75 7 -72 7 7 5 139 -3 146 -2 2 -4 -31 -4 -74z"/>
<path d="M14670 10307 c0 -50 4 -76 10 -72 13 8 13 115 0 135 -7 10 -10 -9
-10 -63z"/>
<path d="M6033 10300 c0 -41 2 -58 4 -37 2 20 2 54 0 75 -2 20 -4 3 -4 -38z"/>
<path d="M14970 10300 c0 -45 4 -69 10 -65 6 3 10 33 10 65 0 32 -4 62 -10 65
-6 4 -10 -20 -10 -65z"/>
<path d="M5853 10248 c2 -7 16 -13 32 -13 16 0 30 6 33 13 2 8 -8 12 -33 12
-25 0 -35 -4 -32 -12z"/>
<path d="M14795 10250 c-7 -11 39 -25 54 -15 6 3 11 10 11 16 0 12 -57 12 -65
-1z"/>
<path d="M5733 10130 c0 -47 2 -66 4 -42 2 23 2 61 0 85 -2 23 -4 4 -4 -43z"/>
<path d="M6033 10135 c0 -44 2 -61 4 -37 2 23 2 59 0 80 -2 20 -4 1 -4 -43z"/>
<path d="M14670 10128 c0 -57 3 -78 10 -68 13 20 13 137 0 145 -6 4 -10 -24
-10 -77z"/>
<path d="M14970 10135 c0 -48 4 -74 10 -70 6 3 10 35 10 70 0 35 -4 67 -10 70
-6 4 -10 -22 -10 -70z"/>
<path d="M18300 10070 c-8 -5 -10 -10 -5 -10 6 0 17 5 25 10 8 5 11 10 5 10
-5 0 -17 -5 -25 -10z"/>
<path d="M5750 10028 c0 -7 -3 -23 -6 -36 -9 -33 50 -55 146 -55 113 0 159 30
130 83 -10 18 -13 18 -51 5 -53 -19 -103 -19 -165 0 -59 18 -54 18 -54 3z"/>
<path d="M14697 10023 c-2 -10 -8 -26 -12 -35 -11 -27 56 -50 146 -51 90 0
133 17 137 53 4 43 -8 51 -53 35 -51 -18 -119 -18 -170 0 -22 8 -41 15 -41 15
-1 0 -4 -8 -7 -17z"/>
<path d="M4343 9854 c-37 -18 -38 -22 -21 -59 9 -20 16 -25 32 -20 43 14 155
17 191 5 40 -13 49 -8 58 31 6 22 2 28 -29 42 -47 23 -186 23 -231 1z"/>
<path d="M13291 9855 c-30 -14 -33 -18 -27 -47 8 -41 10 -42 47 -29 40 14 149
14 185 1 31 -12 40 -6 49 33 6 24 3 29 -29 42 -46 19 -180 19 -225 0z"/>
<path d="M4301 9688 c-1 -53 3 -88 9 -88 12 0 12 127 0 155 -6 13 -9 -9 -9
-67z"/>
<path d="M13240 9682 c0 -60 3 -82 13 -82 9 0 12 18 9 73 -6 102 -22 109 -22
9z"/>
<path d="M4600 9675 c0 -43 4 -75 10 -75 6 0 10 32 10 75 0 43 -4 75 -10 75
-6 0 -10 -32 -10 -75z"/>
<path d="M13547 9743 c-11 -10 -8 -143 3 -143 6 0 10 32 10 75 0 75 -1 81 -13
68z"/>
<path d="M4301 9488 c1 -57 4 -75 9 -58 12 37 12 140 0 140 -6 0 -10 -34 -9
-82z"/>
<path d="M4600 9506 c0 -36 5 -68 10 -71 6 -4 10 20 10 64 0 41 -4 71 -10 71
-6 0 -10 -28 -10 -64z"/>
<path d="M13240 9493 c0 -58 3 -74 11 -66 17 17 18 143 2 143 -9 0 -13 -21
-13 -77z"/>
<path d="M13540 9511 c0 -35 5 -63 13 -69 9 -8 11 4 9 59 -4 84 -22 92 -22 10z"/>
<path d="M4318 9380 c-18 -55 -16 -59 45 -85 81 -34 247 -5 247 43 0 17 -18
81 -26 90 -1 2 -15 -5 -30 -15 -38 -25 -149 -25 -187 0 -14 9 -28 17 -30 17
-2 0 -10 -22 -19 -50z"/>
<path d="M13277 9422 c-14 -23 -27 -81 -22 -95 17 -42 175 -63 247 -33 54 23
59 35 42 86 -9 25 -17 46 -19 48 -2 2 -16 -5 -31 -15 -37 -24 -136 -24 -181 0
-17 9 -34 14 -36 9z"/>
<path d="M8702 9350 c-17 -7 -22 -16 -20 -37 3 -23 -1 -28 -22 -31 -51 -5 -70
-13 -70 -26 0 -17 22 -26 60 -26 37 0 42 -10 42 -73 0 -73 5 -85 39 -92 37 -8
65 13 74 57 7 31 10 33 68 43 59 10 44 45 -19 45 -25 0 -37 18 -48 71 -8 35
-44 79 -64 78 -9 0 -27 -4 -40 -9z"/>
<path d="M17648 9349 c-10 -5 -18 -21 -18 -35 0 -26 -4 -29 -62 -39 -25 -4
-38 -11 -38 -21 0 -8 4 -13 9 -9 5 3 12 1 16 -5 3 -5 20 -10 36 -10 35 0 38
-6 47 -91 6 -57 10 -64 34 -73 34 -12 62 10 78 60 10 29 16 34 41 34 17 0 40
5 51 11 21 11 21 12 3 25 -10 8 -32 14 -47 14 -16 0 -30 6 -32 13 -2 6 -9 31
-15 54 -19 68 -61 97 -103 72z"/>
<path d="M1697 9260 c-14 -11 -27 -33 -29 -48 -3 -24 -8 -28 -55 -36 -57 -9
-76 -32 -47 -53 22 -16 111 -17 116 -2 3 9 9 9 25 0 88 -46 174 71 99 135 -33
29 -75 31 -109 4z"/>
<path d="M10635 9255 c-14 -13 -25 -35 -25 -48 0 -21 -6 -25 -52 -33 -40 -7
-54 -14 -56 -28 -2 -10 2 -22 10 -27 20 -13 102 -11 116 3 9 9 15 9 24 0 22
-22 68 -14 100 18 26 27 30 36 25 68 -12 70 -92 97 -142 47z"/>
<path d="M1852 9228 c4 -38 19 -44 77 -28 69 18 47 60 -32 60 l-48 0 3 -32z"/>
<path d="M5995 9250 c-9 -15 46 -83 58 -71 5 5 6 18 3 29 -8 25 -53 56 -61 42z"/>
<path d="M10795 9233 c9 -40 17 -45 64 -37 80 13 62 64 -21 64 -50 0 -50 0
-43 -27z"/>
<path d="M5731 9224 c-24 -31 -26 -44 -7 -44 7 0 26 16 40 35 25 33 26 35 7
35 -11 0 -29 -12 -40 -26z"/>
<path d="M14680 9230 c-17 -17 -28 -60 -16 -60 8 0 66 64 66 73 0 14 -30 7
-50 -13z"/>
<path d="M14940 9244 c0 -13 42 -74 51 -74 16 0 10 46 -9 63 -19 17 -42 23
-42 11z"/>
<path d="M4290 9164 c0 -24 33 -58 51 -52 8 3 1 17 -19 39 -28 30 -31 32 -32
13z"/>
<path d="M4582 9150 c-9 -16 -23 -30 -29 -30 -7 0 -13 -4 -13 -8 0 -5 -17 -13
-37 -18 -30 -7 -39 -15 -47 -41 l-9 -33 -333 0 c-327 0 -334 0 -334 20 0 13
-7 20 -20 20 -18 0 -20 -7 -20 -71 0 -62 2 -70 18 -67 9 2 18 13 20 26 l3 22
334 0 333 0 7 -30 c7 -32 30 -50 64 -50 12 0 21 -4 21 -10 0 -5 7 -10 15 -10
8 0 15 -6 15 -14 0 -16 26 -46 41 -46 5 0 9 18 9 40 l0 40 55 0 c30 0 55 -4
55 -10 0 -5 7 -10 15 -10 8 0 15 -6 15 -13 0 -19 37 -50 49 -42 6 3 11 22 11
41 l0 34 55 0 c30 0 55 -4 55 -10 0 -5 7 -10 15 -10 8 0 15 -6 15 -13 0 -14
31 -47 43 -47 4 0 7 17 7 39 0 29 6 42 23 54 20 13 22 21 20 93 -2 67 -6 81
-23 93 -14 10 -20 24 -20 52 0 47 -15 50 -38 9 -9 -16 -23 -30 -29 -30 -7 0
-13 -4 -13 -10 0 -6 -27 -10 -60 -10 l-60 0 0 40 c0 48 -14 51 -38 10 -9 -16
-23 -30 -29 -30 -7 0 -13 -4 -13 -10 0 -5 -25 -10 -56 -10 l-56 0 7 40 c6 33
4 40 -10 40 -9 0 -24 -13 -33 -30z m43 -100 c28 -28 26 -87 -4 -111 -69 -56
-159 9 -125 89 22 54 85 64 129 22z m183 7 c24 -19 32 -54 21 -87 -12 -34 -35
-50 -74 -50 -39 0 -62 16 -74 51 -26 76 65 138 127 86z"/>
<path d="M13230 9165 c0 -15 38 -55 52 -55 13 0 10 10 -13 41 -22 31 -39 38
-39 14z"/>
<path d="M13533 9168 c-5 -7 -12 -20 -15 -28 -3 -9 -18 -21 -34 -29 -16 -7
-40 -18 -54 -25 -16 -7 -26 -22 -28 -39 l-3 -27 -340 0 c-332 0 -339 0 -339
20 0 13 -7 20 -20 20 -19 0 -21 -5 -18 -67 2 -55 6 -68 21 -71 12 -3 17 3 17
22 l0 26 340 0 340 0 0 -24 c0 -27 33 -56 62 -56 10 0 18 -4 18 -10 0 -5 6
-10 13 -10 6 0 20 -14 30 -31 22 -39 41 -33 45 14 l3 37 50 0 c27 0 49 -4 49
-10 0 -5 7 -10 14 -10 8 0 21 -12 28 -27 7 -15 21 -29 31 -31 14 -3 17 4 17
37 l0 41 55 0 c30 0 55 -4 55 -10 0 -5 7 -10 14 -10 8 0 21 -12 28 -27 7 -15
21 -29 31 -31 14 -3 17 4 17 37 0 28 7 48 20 61 29 29 29 152 1 172 -12 9 -21
28 -23 53 -3 46 -25 54 -44 17 -19 -37 -46 -51 -101 -52 l-52 0 -3 38 c-3 43
-26 50 -44 14 -19 -38 -46 -51 -103 -52 -53 0 -53 0 -46 27 3 15 7 32 8 37 3
15 -29 18 -40 4z m28 -117 c34 -35 37 -68 8 -105 -15 -19 -29 -26 -57 -26 -87
0 -114 104 -37 148 32 18 55 14 86 -17z m197 -7 c28 -31 28 -64 1 -98 -43 -54
-139 -21 -139 49 0 78 85 108 138 49z"/>
<path d="M5785 9071 c-50 -22 -71 -46 -57 -63 5 -7 13 -28 17 -45 8 -40 21
-49 43 -30 37 32 165 33 197 0 8 -8 19 -11 25 -8 6 4 10 -21 10 -69 0 -61 3
-76 15 -76 12 0 15 17 14 98 0 63 -3 90 -9 77 -13 -30 -13 6 0 40 14 36 -3 59
-59 79 -60 21 -146 20 -196 -3z"/>
<path d="M14720 9068 c-43 -22 -45 -24 -42 -65 1 -23 -2 -44 -8 -48 -14 -8
-13 -162 1 -171 8 -4 8 -9 0 -17 -14 -14 -15 -184 0 -193 6 -3 8 -17 5 -30 -5
-20 0 -26 38 -44 77 -35 240 -21 268 23 6 9 -7 51 -22 69 -3 4 -34 1 -68 -7
-55 -13 -71 -13 -125 -1 -34 8 -64 13 -67 11 -3 -2 -5 75 -5 170 0 95 3 169 6
163 4 -6 17 -3 35 8 38 25 150 25 188 1 15 -10 30 -16 34 -13 4 2 6 -30 4 -71
-4 -69 -3 -75 14 -71 17 3 19 15 21 98 3 89 2 94 -13 75 -16 -20 -16 -19 -9 5
26 89 -8 121 -134 127 -64 3 -83 0 -121 -19z"/>
<path d="M6700 9005 c0 -8 7 -15 15 -15 13 0 15 -32 15 -230 0 -223 -1 -230
-20 -230 -13 0 -25 -12 -35 -37 -8 -20 -24 -43 -35 -50 -27 -19 -25 -33 5 -33
22 0 25 -4 25 -35 0 -25 -7 -43 -25 -59 -32 -30 -32 -36 5 -36 27 0 30 -3 30
-34 0 -25 -8 -42 -30 -63 -37 -34 -38 -43 -4 -43 14 0 32 -7 40 -15 9 -9 34
-15 59 -15 25 0 50 6 59 15 8 8 26 15 40 15 34 0 33 10 -4 40 -24 20 -30 33
-30 62 0 36 2 38 30 38 17 0 30 3 30 8 0 4 -13 18 -30 32 -22 18 -30 33 -30
57 0 30 3 33 30 33 17 0 30 3 30 8 0 4 -13 18 -30 32 -17 14 -30 34 -30 47 0
16 -8 25 -25 29 l-25 6 0 234 c0 201 2 234 15 234 8 0 15 5 15 10 0 6 -20 10
-45 10 -33 0 -45 -4 -45 -15z m97 -531 c9 -25 -7 -65 -29 -73 -50 -18 -92 25
-70 73 17 39 84 39 99 0z m-17 -114 c44 -44 4 -113 -53 -91 -45 17 -47 83 -4
101 32 13 35 12 57 -10z"/>
<path d="M15640 9005 c0 -8 7 -15 15 -15 13 0 15 -32 15 -228 0 -226 0 -227
-22 -237 -13 -6 -24 -20 -26 -33 -2 -12 -14 -30 -28 -38 -31 -21 -31 -44 1
-44 22 0 25 -4 25 -34 0 -25 -7 -40 -25 -54 -14 -11 -25 -25 -25 -31 0 -6 11
-11 25 -11 22 0 25 -4 25 -40 0 -31 -5 -43 -25 -56 -30 -20 -33 -44 -4 -44 11
0 27 -7 35 -15 9 -9 34 -15 59 -15 25 0 50 6 59 15 8 8 26 15 40 15 34 0 33 9
-4 43 -22 21 -30 38 -30 63 0 31 3 34 30 34 37 0 37 6 5 36 -18 16 -25 34 -25
59 0 31 3 35 25 35 30 0 32 14 5 33 -11 8 -25 28 -31 45 -7 21 -20 34 -35 38
l-24 6 0 234 c0 201 2 234 15 234 8 0 15 5 15 10 0 6 -20 10 -45 10 -33 0 -45
-4 -45 -15z m95 -555 c0 -43 -29 -65 -65 -47 -19 10 -25 20 -25 47 0 27 6 37
25 47 36 18 65 -4 65 -47z m0 -130 c0 -43 -29 -65 -65 -47 -19 10 -25 20 -25
47 0 27 6 37 25 47 36 18 65 -4 65 -47z"/>
<path d="M5720 8765 c0 -134 4 -195 11 -195 7 0 9 -10 5 -25 -6 -23 -2 -28 36
-45 61 -28 175 -27 229 1 38 19 41 23 35 52 -4 17 -10 35 -14 39 -5 5 -39 2
-75 -7 -61 -14 -73 -14 -129 0 -50 13 -63 14 -70 3 -7 -8 -7 -4 -2 12 24 78
11 360 -17 360 -5 0 -8 -88 -9 -195z"/>
<path d="M18014 8832 c-105 -50 -159 -134 -158 -247 1 -148 101 -253 252 -263
55 -4 71 0 126 27 101 50 146 123 146 240 0 95 -34 161 -113 215 -52 36 -63
40 -134 43 -62 3 -87 0 -119 -15z m146 -147 c48 -25 42 -68 -17 -127 l-47 -48
52 0 c40 0 52 -4 52 -15 0 -12 -16 -15 -80 -15 -58 0 -80 3 -80 13 0 7 25 37
55 67 62 62 69 93 22 98 -18 2 -29 -2 -33 -12 -6 -15 -44 -23 -44 -10 0 16 24
46 43 54 32 13 44 12 77 -5z"/>
<path d="M7336 8771 c-15 -28 -16 -28 -112 -29 -91 0 -98 -2 -123 -26 -25 -26
-26 -30 -26 -151 0 -114 2 -126 22 -146 22 -23 79 -33 168 -30 43 1 52 -3 71
-26 12 -16 26 -25 30 -21 4 4 2 14 -4 21 -7 8 -9 17 -5 21 4 4 113 6 243 5
259 -1 287 4 328 56 19 24 22 40 22 120 0 78 -3 96 -21 119 -44 56 -61 59
-327 57 l-244 -2 7 30 c9 40 -9 41 -29 2z"/>
<path d="M16281 8772 c-20 -28 -23 -29 -110 -30 -49 0 -98 -5 -110 -11 -30
-16 -43 -80 -39 -192 4 -145 4 -145 181 -152 50 -2 60 -6 83 -32 l25 -30 -5
33 -6 33 243 -2 c281 -1 294 2 340 73 25 40 23 156 -3 208 -35 68 -57 73 -337
71 -201 -2 -243 0 -243 11 0 8 5 19 11 25 7 7 7 13 1 17 -6 3 -20 -7 -31 -22z"/>
<path d="M6020 8693 c1 -45 6 -88 14 -102 19 -34 23 -17 18 87 -3 70 -7 92
-18 92 -11 0 -14 -18 -14 -77z"/>
<path d="M14960 8702 c0 -71 15 -132 31 -132 6 0 9 41 7 97 -3 84 -6 98 -20
101 -16 3 -18 -5 -18 -66z"/>
<path d="M8413 8734 c-34 -26 -44 -54 -19 -54 17 0 96 50 96 61 0 7 -25 19
-38 19 -4 0 -22 -12 -39 -26z"/>
<path d="M8591 8740 c-34 -24 -48 -188 -22 -266 13 -39 15 -41 55 -42 22 0
120 -3 216 -7 166 -6 177 -5 208 14 43 28 52 55 52 157 0 152 -9 157 -292 153
-115 -2 -213 -6 -217 -9z m334 -75 l0 -50 -74 -3 c-89 -4 -113 11 -109 68 l2
37 90 -1 91 -1 0 -50z m-167 -115 c15 19 26 21 92 18 l75 -3 3 -52 3 -52 -94
-3 -95 -3 -6 50 c-3 28 -5 68 -4 90 1 33 2 31 5 -13 4 -51 5 -52 21 -32z"/>
<path d="M9122 8714 c4 -20 34 -41 44 -31 8 8 -24 47 -38 47 -5 0 -8 -7 -6
-16z"/>
<path d="M8380 8486 c0 -22 51 -66 77 -66 35 0 36 17 1 43 -44 33 -78 43 -78
23z"/>
<path d="M9137 8482 c-18 -20 -22 -42 -9 -42 12 0 42 34 42 48 0 17 -15 15
-33 -6z"/>
<path d="M3534 8235 c-4 -9 -19 -15 -35 -15 -35 0 -36 -6 -4 -36 19 -17 25
-33 25 -64 0 -36 -2 -40 -25 -40 -29 0 -34 -17 -7 -27 25 -9 32 -23 32 -65 0
-34 -3 -38 -25 -38 -30 0 -33 -15 -6 -30 11 -5 25 -26 31 -45 9 -27 17 -35 36
-35 l24 0 0 -235 c0 -202 -2 -235 -15 -235 -8 0 -15 -7 -15 -15 0 -11 12 -15
45 -15 33 0 45 4 45 15 0 8 -7 15 -15 15 -13 0 -15 32 -15 228 l0 229 25 11
c14 6 25 20 25 30 0 10 11 29 25 42 14 13 25 27 25 32 0 4 -11 8 -25 8 -22 0
-25 4 -25 34 0 23 8 42 27 60 22 23 25 29 13 37 -8 5 -21 9 -27 9 -8 0 -13 14
-13 34 0 25 7 40 25 54 32 25 32 42 0 42 -14 0 -28 7 -31 15 -5 11 -21 15 -60
15 -39 0 -56 -4 -60 -15z m87 -145 c13 -7 19 -21 19 -43 0 -40 -15 -57 -50
-57 -33 0 -50 17 -50 51 0 48 38 71 81 49z m0 -130 c13 -7 19 -21 19 -43 0
-40 -15 -57 -50 -57 -14 0 -31 5 -38 12 -17 17 -15 58 5 80 18 20 36 23 64 8z"/>
<path d="M12476 8235 c-8 -8 -26 -15 -40 -15 -30 0 -35 -20 -7 -27 21 -5 31
-31 31 -80 0 -29 -3 -33 -25 -33 -29 0 -34 -17 -7 -27 25 -9 32 -23 32 -65 0
-34 -3 -38 -25 -38 -29 0 -34 -20 -6 -27 10 -3 26 -22 34 -44 11 -28 21 -39
36 -39 21 0 21 -4 21 -235 0 -202 -2 -235 -15 -235 -8 0 -15 -7 -15 -15 0 -11
12 -15 45 -15 33 0 45 4 45 15 0 8 -7 15 -15 15 -13 0 -15 32 -15 229 0 217 1
229 19 234 11 2 27 20 36 38 10 19 27 43 39 54 l21 20 -28 3 c-23 3 -27 8 -27
37 0 42 9 65 25 65 26 0 25 30 0 36 -35 9 -35 66 0 98 32 30 31 36 -4 36 -16
0 -31 6 -35 15 -4 11 -20 15 -55 15 -31 0 -55 -6 -65 -15z m94 -155 c24 -24
25 -47 3 -72 -32 -35 -93 -13 -93 34 0 27 28 58 52 58 10 0 27 -9 38 -20z m0
-130 c11 -11 20 -28 20 -37 0 -46 -79 -73 -100 -34 -16 31 -12 59 12 75 30 21
44 20 68 -4z"/>
<path d="M1039 8103 c-54 -8 -132 -66 -166 -122 -67 -112 -51 -237 40 -326 59
-57 105 -75 194 -75 144 0 252 111 253 260 0 175 -142 291 -321 263z m141
-151 c0 -10 -15 -49 -34 -86 -19 -38 -38 -86 -41 -107 -5 -29 -11 -39 -26 -39
-10 0 -19 6 -19 13 0 23 39 127 60 162 11 18 20 35 20 39 0 3 -29 6 -65 6 -51
0 -65 3 -65 15 0 12 16 15 85 15 75 0 85 -2 85 -18z"/>
<path d="M2648 8019 c-6 -4 -5 -9 3 -13 8 -3 0 -3 -18 0 -26 4 -35 1 -49 -21
-35 -53 -28 -243 10 -275 8 -6 25 -6 50 1 33 9 37 13 30 32 -8 22 -10 165 -3
225 3 23 8 31 18 27 21 -8 300 -7 313 1 6 4 8 3 5 -3 -4 -6 3 -32 14 -58 24
-54 22 -111 -5 -166 -19 -38 -17 -41 47 -62 l47 -16 27 41 c24 36 27 50 27
128 0 81 -2 90 -28 125 -22 29 -33 35 -50 30 -11 -4 -32 -9 -46 -11 -22 -4
-23 -3 -5 5 11 5 18 10 15 11 -20 5 -394 4 -402 -1z"/>
<path d="M3250 8021 c0 -10 62 -61 73 -61 15 0 6 28 -16 48 -24 22 -57 30 -57
13z"/>
<path d="M10602 8018 c6 -17 56 -53 64 -45 8 7 -41 57 -56 57 -7 0 -10 -5 -8
-12z"/>
<path d="M11594 8018 c-2 -3 2 -9 8 -12 7 -3 -4 -3 -24 0 -34 5 -38 3 -54 -28
-26 -50 -26 -201 0 -245 21 -33 40 -36 89 -11 16 8 16 11 2 38 -19 37 -19 156
-1 189 8 14 12 30 10 35 -3 7 27 10 88 9 51 -1 126 -3 166 -3 39 0 71 -3 70
-7 -1 -5 6 -23 16 -42 23 -43 18 -144 -9 -184 -14 -22 -15 -28 -4 -32 97 -35
96 -35 118 -11 55 58 55 223 1 286 -17 20 -23 22 -46 12 -14 -7 -33 -12 -42
-12 -15 0 -15 2 -2 10 8 5 13 10 10 10 -55 5 -393 3 -396 -2z"/>
<path d="M12200 8020 c0 -12 50 -59 63 -60 14 0 7 30 -13 50 -21 21 -50 27
-50 10z"/>
<path d="M10035 8010 c-13 -6 8 -9 65 -9 58 -1 80 2 70 9 -18 12 -107 12 -135
0z"/>
<path d="M10205 8010 c-4 -6 21 -10 67 -10 51 0 68 3 58 10 -20 13 -117 13
-125 0z"/>
<path d="M10382 7993 c-42 -15 -43 -16 -26 -35 26 -27 31 -132 10 -182 -9 -21
-16 -40 -16 -41 0 -8 89 -32 97 -26 47 29 62 182 27 256 -22 46 -33 49 -92 28z"/>
<path d="M4322 7985 c-7 -8 -9 -15 -4 -15 5 0 15 7 22 15 16 19 -1 19 -18 0z"/>
<path d="M4542 7988 c5 -15 28 -23 28 -10 0 5 -7 13 -16 16 -10 4 -14 1 -12
-6z"/>
<path d="M9923 7968 c-24 -45 -23 -180 0 -225 19 -36 24 -38 61 -24 24 10 24
10 9 58 -15 51 -12 148 7 183 8 15 6 21 -9 30 -33 17 -50 12 -68 -22z"/>
<path d="M13269 7983 c-13 -15 -12 -15 9 -4 23 12 28 21 13 21 -5 0 -15 -7
-22 -17z"/>
<path d="M13490 7985 c7 -8 17 -15 22 -15 6 0 5 7 -2 15 -7 8 -17 15 -22 15
-6 0 -5 -7 2 -15z"/>
<path d="M4380 7901 c-65 -14 -83 -29 -76 -64 8 -39 8 -39 40 -27 35 13 157
13 192 0 31 -12 40 -6 49 32 6 22 2 29 -22 42 -36 18 -135 27 -183 17z"/>
<path d="M13325 7901 c-22 -4 -50 -13 -63 -20 -20 -10 -22 -17 -16 -44 8 -42
8 -41 45 -28 42 14 161 14 194 -1 30 -13 33 -11 41 29 5 28 2 33 -24 47 -37
19 -122 27 -177 17z"/>
<path d="M13231 7717 c-1 -57 3 -86 9 -82 12 7 12 109 0 145 -5 17 -8 -4 -9
-63z"/>
<path d="M4280 7716 c0 -41 5 -78 10 -81 6 -4 10 23 10 74 0 47 -4 81 -10 81
-6 0 -10 -31 -10 -74z"/>
<path d="M4587 7773 c-11 -10 -8 -143 3 -143 6 0 10 32 10 75 0 75 -1 81 -13
68z"/>
<path d="M13525 7748 c-9 -45 -3 -113 10 -113 13 0 19 125 6 138 -6 6 -12 -2
-16 -25z"/>
<path d="M12232 7732 c-31 -26 -42 -52 -23 -52 19 0 63 46 60 62 -3 14 -9 13
-37 -10z"/>
<path d="M3280 7724 c-22 -19 -28 -30 -21 -37 13 -13 64 22 69 47 5 23 -12 20
-48 -10z"/>
<path d="M10620 7715 c-13 -14 -21 -28 -18 -31 9 -9 46 14 58 36 16 30 -11 26
-40 -5z"/>
<path d="M2683 7715 c-18 -8 -33 -17 -33 -20 0 -3 88 -5 195 -5 107 0 195 4
195 8 0 25 -155 43 -177 21 -8 -8 -13 -8 -17 0 -10 16 -125 13 -163 -4z"/>
<path d="M11633 7719 c-72 -21 -28 -29 157 -29 105 1 190 4 190 9 0 24 -155
42 -177 20 -8 -8 -13 -8 -17 0 -9 13 -108 13 -153 0z"/>
<path d="M10025 7710 c-13 -6 10 -9 68 -9 56 -1 86 3 82 9 -7 12 -122 12 -150
0z"/>
<path d="M10200 7710 c0 -6 32 -10 78 -9 52 0 71 3 57 9 -28 12 -135 12 -135
0z"/>
<path d="M4287 7603 c-11 -10 -8 -143 3 -143 6 0 10 32 10 75 0 75 -1 81 -13
68z"/>
<path d="M4580 7546 c0 -36 5 -68 10 -71 6 -4 10 20 10 64 0 41 -4 71 -10 71
-6 0 -10 -28 -10 -64z"/>
<path d="M5336 7603 c-3 -3 -6 -22 -6 -41 0 -21 -7 -40 -17 -47 -13 -9 -18
-32 -21 -83 -4 -66 -2 -73 22 -97 18 -18 26 -36 26 -61 0 -42 18 -42 38 -1 7
15 20 27 28 27 7 0 14 5 14 10 0 6 27 10 60 10 l60 0 0 -41 c0 -46 17 -49 38
-6 7 15 20 27 28 27 7 0 14 5 14 10 0 6 25 10 55 10 l55 0 0 -40 c0 -49 26
-55 41 -10 6 17 17 30 25 30 8 0 14 5 14 10 0 6 9 10 21 10 37 0 59 19 59 50
l0 30 339 0 340 0 3 -22 c2 -13 10 -23 18 -23 12 0 16 15 18 68 3 62 1 67 -18
67 -15 0 -20 -6 -20 -25 l0 -25 -339 0 -340 0 -3 31 c-3 33 -7 37 -70 64 -21
10 -40 26 -43 36 -4 10 -15 24 -26 29 -17 10 -19 7 -19 -30 l0 -40 -53 0 c-38
0 -58 5 -70 18 -9 9 -25 27 -37 40 -26 29 -40 21 -40 -24 l0 -34 -53 0 c-40 0
-59 5 -75 20 -12 12 -22 25 -22 30 0 12 -36 31 -44 23z m308 -124 c20 -16 26
-29 26 -59 0 -87 -117 -109 -151 -29 -9 23 -9 36 1 59 22 53 77 66 124 29z
m190 0 c20 -16 26 -29 26 -59 0 -86 -117 -109 -150 -30 -33 79 55 143 124 89z"/>
<path d="M13231 7528 c1 -57 4 -75 9 -58 12 36 12 128 0 135 -6 4 -10 -24 -9
-77z"/>
<path d="M13526 7594 c-8 -20 -8 -72 0 -101 11 -40 24 -14 24 47 0 58 -12 85
-24 54z"/>
<path d="M14480 7570 l0 -40 -57 0 c-59 1 -79 10 -99 45 -6 11 -19 21 -28 23
-13 3 -16 -5 -16 -36 0 -31 -4 -41 -20 -45 -18 -5 -20 -14 -20 -91 0 -75 3
-87 20 -98 14 -9 20 -24 20 -50 0 -48 26 -52 43 -8 6 17 17 30 24 30 7 0 13 5
13 10 0 6 27 10 60 10 l60 0 0 -40 c0 -49 26 -55 43 -10 6 17 17 30 24 30 7 0
13 5 13 10 0 6 25 10 55 10 l55 0 0 -40 c0 -49 26 -55 43 -10 6 17 17 30 24
30 7 0 13 5 13 10 0 6 13 10 29 10 32 0 61 30 61 62 0 17 21 18 334 18 l335 0
3 -22 c2 -13 10 -23 18 -23 12 0 16 15 18 68 3 62 1 67 -18 67 -15 0 -20 -6
-20 -25 l0 -25 -335 0 -335 0 0 23 c0 33 -18 51 -70 70 -27 10 -49 26 -55 39
-6 13 -18 24 -27 26 -15 3 -18 -4 -18 -32 l0 -36 -52 0 c-54 1 -79 12 -91 42
-3 9 -15 22 -26 28 -20 10 -21 8 -21 -30z m100 -80 c26 -14 44 -73 31 -99 -15
-27 -51 -51 -78 -51 -12 0 -34 11 -49 23 -71 62 12 172 96 127z m192 -4 c44
-33 42 -98 -4 -130 -32 -22 -62 -20 -94 7 -34 30 -35 79 -3 113 25 27 73 32
101 10z"/>
<path d="M4310 7436 c-5 -14 -10 -37 -12 -53 -8 -74 202 -100 282 -35 20 17
20 18 4 65 -9 26 -17 47 -18 47 -2 0 -18 -7 -36 -17 -44 -21 -135 -21 -178 1
-32 16 -32 16 -42 -8z"/>
<path d="M13247 7416 c-18 -53 -11 -68 45 -91 90 -37 245 -2 241 55 -1 14 -6
38 -12 53 l-11 28 -32 -17 c-44 -23 -133 -23 -177 -1 -19 9 -35 17 -37 17 -1
0 -9 -20 -17 -44z"/>
<path d="M4440 7276 c0 -9 5 -16 10 -16 6 0 10 4 10 9 0 6 -4 13 -10 16 -5 3
-10 -1 -10 -9z"/>
<path d="M13385 7281 c-3 -5 -1 -12 5 -16 5 -3 10 1 10 9 0 18 -6 21 -15 7z"/>
<path d="M4370 7256 c0 -16 6 -26 14 -26 9 0 12 7 9 20 -8 31 -23 34 -23 6z"/>
<path d="M13316 7268 c-10 -21 0 -38 22 -38 11 0 13 3 6 8 -7 4 -14 16 -16 27
-4 18 -6 18 -12 3z"/>
<path d="M13503 7186 c-29 -25 -26 -50 2 -26 17 14 39 50 31 50 -3 0 -18 -11
-33 -24z"/>
<path d="M4300 7192 c0 -14 39 -46 47 -39 3 4 -2 16 -12 27 -19 21 -35 26 -35
12z"/>
<path d="M4550 7175 c-18 -19 -20 -25 -8 -25 15 0 48 30 48 43 0 14 -17 6 -40
-18z"/>
<path d="M13240 7192 c0 -12 34 -42 48 -42 18 0 14 10 -10 31 -25 20 -38 24
-38 11z"/>
<path d="M5776 7124 c-9 -24 -8 -25 14 -12 23 15 26 28 6 28 -8 0 -17 -7 -20
-16z"/>
<path d="M6010 7132 c0 -4 9 -13 20 -20 22 -13 27 -3 8 16 -14 14 -28 16 -28
4z"/>
<path d="M14720 7125 c-20 -24 -5 -28 21 -6 19 16 20 20 8 21 -9 0 -22 -7 -29
-15z"/>
<path d="M14965 7120 c10 -11 22 -20 27 -20 4 0 3 9 -4 20 -7 11 -19 20 -27
20 -11 0 -10 -5 4 -20z"/>
<path d="M5802 6965 c-42 -18 -47 -33 -30 -91 l13 -47 122 -1 122 -1 16 49 c9
27 14 55 11 63 -16 40 -184 58 -254 28z"/>
<path d="M14744 6966 c-44 -20 -48 -30 -29 -89 l16 -52 122 1 121 1 12 34 c32
89 8 112 -119 116 -64 2 -102 -1 -123 -11z"/>
<path d="M6056 6824 c-10 -26 -7 -134 4 -134 6 0 10 32 10 75 0 76 -3 88 -14
59z"/>
<path d="M14996 6818 c-9 -36 -7 -116 4 -123 6 -4 10 22 10 69 0 79 -3 92 -14
54z"/>
<path d="M5750 6761 c0 -33 5 -63 10 -66 6 -4 10 18 10 59 0 37 -4 66 -10 66
-6 0 -10 -26 -10 -59z"/>
<path d="M14703 6755 c0 -38 2 -53 4 -32 2 20 2 52 0 70 -2 17 -4 1 -4 -38z"/>
<path d="M5887 6713 c-21 -21 22 -33 51 -14 11 7 10 10 -3 15 -21 8 -40 8 -48
-1z"/>
<path d="M14810 6710 c-24 -7 -23 -7 12 -15 45 -9 81 1 58 15 -17 11 -35 11
-70 0z"/>
<path d="M5757 6663 c-11 -10 -8 -143 3 -143 6 0 10 32 10 75 0 75 -1 81 -13
68z"/>
<path d="M6057 6663 c-11 -10 -8 -141 3 -148 6 -4 10 23 10 74 0 81 -1 87 -13
74z"/>
<path d="M14698 6618 c-2 -29 -1 -64 3 -78 5 -16 8 3 8 53 1 88 -5 102 -11 25z"/>
<path d="M14997 6663 c-10 -9 -7 -124 3 -148 6 -13 9 9 9 68 1 87 0 93 -12 80z"/>
<path d="M1935 6609 c-98 -39 -147 -69 -114 -69 8 0 19 4 25 8 5 5 32 18 60
30 l52 22 128 -31 c189 -46 227 -57 246 -71 9 -7 48 -66 87 -130 90 -149 91
-159 14 -259 -32 -40 -76 -92 -99 -114 -39 -40 -42 -41 -148 -53 l-107 -13
-73 35 c-85 41 -126 58 -126 51 0 -3 61 -35 135 -72 l136 -66 140 12 c192 16
194 17 294 167 68 103 89 154 82 200 -12 70 -111 221 -178 269 -116 84 -120
86 -339 115 -97 14 -107 12 -215 -31z"/>
<path d="M4323 6622 c-17 -15 -37 -40 -42 -55 -7 -17 -11 -125 -11 -274 l0
-245 -25 16 c-20 13 -25 14 -25 2 0 -7 11 -21 25 -30 22 -14 25 -24 24 -64 -3
-112 2 -144 26 -168 23 -23 31 -24 147 -24 166 1 168 2 174 136 5 89 8 101 30
119 31 27 31 37 -1 29 l-26 -6 2 228 c1 257 -5 299 -52 338 -28 24 -38 26
-122 26 -86 0 -94 -2 -124 -28z"/>
<path d="M8072 6630 c-121 -16 -137 -21 -172 -49 -21 -17 -42 -31 -46 -31 -3
0 -28 -18 -54 -40 -61 -51 -160 -219 -160 -271 0 -31 19 -78 56 -139 64 -107
96 -149 130 -172 35 -24 53 -28 180 -39 140 -11 141 -11 190 13 112 55 215
111 211 115 -3 2 -48 -17 -101 -42 l-95 -46 -102 13 c-65 8 -110 19 -124 30
-36 28 -175 219 -175 240 0 11 6 32 14 46 34 63 126 218 138 234 9 12 73 33
191 62 197 49 190 49 290 -5 40 -22 50 -14 14 12 -33 24 -203 89 -229 88 -13
-1 -83 -9 -156 -19z"/>
<path d="M10920 6626 c-88 -31 -160 -66 -160 -77 0 -10 14 -12 23 -3 14 15
123 53 137 49 8 -2 26 -7 40 -9 149 -32 298 -73 317 -88 7 -6 44 -63 83 -128
93 -156 93 -160 -5 -286 -42 -53 -85 -104 -98 -113 -14 -12 -59 -22 -129 -30
l-107 -12 -97 46 c-53 25 -99 44 -101 41 -3 -3 57 -35 132 -72 l138 -67 139
11 c77 7 154 18 172 26 37 15 69 54 146 176 67 105 76 163 39 228 -13 22 -38
65 -56 95 -33 57 -77 98 -175 161 -44 30 -72 40 -130 47 -40 6 -102 14 -138
19 -90 13 -97 12 -170 -14z"/>
<path d="M13264 6622 c-50 -44 -57 -82 -49 -272 4 -92 4 -197 0 -233 l-7 -66
-24 16 c-33 21 -33 -4 0 -32 22 -18 25 -30 29 -115 4 -87 7 -96 31 -117 25
-21 37 -23 145 -23 105 0 121 2 145 21 18 15 27 30 27 52 0 18 3 65 5 106 5
61 9 74 25 78 10 3 19 12 19 19 0 11 -7 13 -26 8 l-27 -7 6 229 c6 261 -1 304
-58 343 -26 18 -45 21 -121 21 -82 -1 -91 -3 -120 -28z"/>
<path d="M17014 6630 l-131 -17 -69 -51 c-38 -28 -80 -60 -94 -70 -27 -21
-115 -171 -130 -220 -12 -45 5 -106 49 -170 21 -32 45 -71 54 -88 20 -39 73
-93 102 -104 12 -5 83 -14 158 -21 l135 -12 127 64 c109 55 150 79 132 79 -3
0 -46 -21 -97 -46 l-93 -45 -91 11 c-50 6 -103 16 -118 22 -29 11 -173 191
-191 237 -10 27 -11 25 106 224 22 38 50 74 61 82 12 7 64 23 116 35 52 12
126 31 164 41 64 17 71 17 110 2 22 -10 56 -25 74 -36 36 -21 45 -8 10 15 -38
25 -206 88 -230 87 -13 -1 -82 -9 -154 -19z"/>
<path d="M9448 6628 c21 -11 22 -17 22 -125 0 -92 -3 -113 -14 -113 -8 0 -18
-4 -21 -10 -4 -6 15 -10 49 -10 31 0 56 5 56 10 0 6 -9 10 -20 10 -19 0 -20 7
-20 95 0 52 2 95 4 95 2 0 45 -47 96 -105 50 -58 98 -105 106 -105 11 0 14 23
14 123 0 119 1 124 23 135 19 9 14 11 -33 11 -48 0 -53 -1 -37 -13 14 -11 17
-29 17 -101 l0 -87 -87 101 c-87 101 -87 101 -133 100 -40 0 -42 -2 -22 -11z"/>
<path d="M6000 6482 c-32 -13 -124 -13 -204 0 -24 4 -41 -45 -21 -62 28 -23
122 -35 191 -23 82 14 96 26 80 69 -11 31 -11 31 -46 16z"/>
<path d="M14720 6480 c-31 -58 12 -85 135 -85 97 0 141 18 137 55 -4 46 -10
54 -28 39 -24 -20 -166 -24 -203 -6 -29 14 -32 14 -41 -3z"/>
<path d="M925 6331 c-22 -11 -46 -20 -54 -21 -8 0 -12 -3 -8 -6 3 -3 22 0 43
6 32 11 51 9 152 -16 85 -21 117 -33 126 -49 7 -11 27 -44 44 -73 49 -81 44
-113 -26 -189 l-57 -63 -73 -6 -74 -7 34 -14 c40 -18 166 -10 209 12 15 8 43
34 62 57 79 97 73 201 -15 288 -62 61 -127 87 -239 95 -72 5 -90 3 -124 -14z"/>
<path d="M9140 6337 c-104 -24 -178 -83 -214 -171 -32 -77 -9 -160 62 -228 56
-54 178 -75 252 -44 32 13 32 13 -40 18 -64 5 -75 9 -106 39 -20 19 -48 53
-64 77 -34 52 -30 79 26 171 36 59 44 66 94 81 101 32 172 43 203 31 45 -17
46 -12 2 10 -50 26 -142 33 -215 16z"/>
<path d="M9890 6338 c-23 -10 -21 -12 40 -25 36 -8 92 -22 125 -32 58 -16 60
-19 104 -91 59 -98 59 -120 -4 -198 -28 -33 -57 -63 -65 -67 -8 -4 -46 -9 -83
-12 l-69 -6 34 -14 c47 -21 167 -10 219 19 57 32 112 119 113 177 2 92 -69
184 -175 229 -57 25 -203 37 -239 20z"/>
<path d="M18110 6344 c-102 -20 -190 -77 -227 -147 -64 -118 8 -278 137 -306
70 -15 121 -14 161 4 l34 14 -55 2 c-85 2 -101 10 -157 79 -63 78 -66 102 -20
181 56 97 55 96 167 125 87 22 110 24 141 15 54 -16 58 -13 14 10 -40 21 -143
33 -195 23z"/>
<path d="M6992 6328 c-7 -7 -12 -27 -12 -45 0 -23 -5 -35 -17 -39 -10 -3 -32
-12 -50 -21 -38 -19 -48 -64 -21 -104 9 -14 18 -48 20 -75 3 -41 6 -49 23 -49
17 0 20 8 23 48 3 44 5 48 33 54 17 3 33 12 36 19 3 8 8 12 12 10 9 -6 7 57
-2 71 -4 6 -1 14 5 16 10 4 10 6 1 6 -9 1 -13 18 -13 50 0 53 -17 80 -38 59z"/>
<path d="M15930 6314 c-6 -14 -10 -36 -10 -50 0 -17 -6 -24 -19 -24 -11 0 -33
-8 -49 -17 -37 -21 -47 -69 -20 -98 10 -10 18 -34 18 -54 0 -91 38 -112 54
-30 8 41 14 49 46 63 36 16 38 19 36 61 0 25 4 47 9 49 6 3 4 5 -2 5 -7 1 -13
12 -13 25 0 75 -32 120 -50 70z"/>
<path d="M9815 6310 c-13 -5 -14 -9 -5 -9 8 0 24 4 35 9 13 5 14 9 5 9 -8 0
-24 -4 -35 -9z"/>
<path d="M15762 6170 c0 -14 2 -19 5 -12 2 6 2 18 0 25 -3 6 -5 1 -5 -13z"/>
<path d="M9577 6115 c-8 -39 -27 -127 -42 -196 l-27 -126 -55 -23 c-97 -40
-223 -182 -223 -250 0 -17 -42 -28 -333 -91 -31 -7 -55 -14 -53 -16 5 -5 40
-14 196 -48 194 -43 183 -38 202 -93 35 -97 120 -182 219 -218 l45 -17 33
-156 c19 -86 39 -174 46 -196 l12 -40 16 70 c8 39 28 127 42 196 l27 126 37
13 c100 35 195 126 228 221 10 27 25 51 33 54 8 2 93 22 188 44 96 22 176 41
178 44 4 3 -252 64 -353 83 -22 4 -33 12 -33 23 0 35 -53 121 -104 170 -47 44
-105 79 -157 94 -11 4 -26 53 -54 184 -50 235 -49 231 -68 148z m13 -195 l0
-130 -28 0 -29 0 26 130 c14 71 27 130 29 130 1 0 2 -58 2 -130z m136 -195
c106 -44 165 -117 189 -234 26 -125 -12 -260 -94 -334 -115 -104 -338 -103
-453 1 -131 118 -138 371 -14 495 41 41 96 72 153 87 53 13 171 5 219 -15z
m459 -298 c11 -2 -35 -5 -102 -6 l-123 -1 0 29 0 28 103 -22 c56 -13 111 -25
122 -28z m-955 -47 c0 -16 -3 -30 -7 -30 -5 1 -66 14 -138 29 l-130 29 138 1
137 1 0 -30z m405 -447 c-12 -60 -25 -117 -28 -128 -2 -11 -5 37 -6 108 l-1
127 29 0 29 0 -23 -107z"/>
<path d="M18260 5940 c-9 -6 -10 -10 -3 -10 6 0 15 5 18 10 8 12 4 12 -15 0z"/>
<path d="M3274 5899 c-10 -17 13 -36 27 -22 12 12 4 33 -11 33 -5 0 -12 -5
-16 -11z"/>
<path d="M12214 5899 c-8 -14 11 -33 25 -25 6 4 11 14 11 22 0 16 -26 19 -36
3z"/>
<path d="M1510 5852 c8 -5 33 -13 56 -16 63 -11 99 -38 129 -99 25 -51 25 -57
12 -84 -23 -43 -77 -93 -101 -93 -11 0 -28 -5 -36 -10 -28 -18 83 -10 126 9
80 36 107 156 51 222 -47 55 -83 71 -170 76 -54 3 -77 1 -67 -5z"/>
<path d="M8642 5853 c-35 -7 -93 -49 -114 -83 -36 -60 -18 -155 36 -198 14
-11 22 -22 19 -26 -4 -4 2 -9 14 -12 24 -6 26 9 -21 -149 l-12 -40 -27 84
c-31 98 -32 101 -12 101 8 0 15 5 15 10 0 6 -25 10 -56 10 -34 0 -53 -4 -49
-10 3 -5 13 -10 21 -10 17 0 19 11 -15 -95 l-29 -89 -17 59 c-9 33 -21 73 -26
89 -12 37 -12 36 5 36 8 0 18 5 21 10 4 6 -15 10 -49 10 -31 0 -56 -4 -56 -10
0 -5 6 -10 14 -10 8 0 23 -35 40 -97 42 -150 47 -164 59 -160 6 2 25 46 43 98
36 106 33 108 75 -30 11 -39 26 -71 33 -71 7 0 29 54 51 126 39 127 50 144 95
144 12 0 18 5 15 10 -3 6 -19 10 -34 10 -21 0 -40 12 -70 45 -49 54 -53 86
-15 151 30 51 63 72 129 81 25 3 48 10 51 14 5 9 -91 10 -134 2z"/>
<path d="M10450 5851 c8 -5 34 -12 57 -16 24 -4 57 -16 75 -28 43 -30 83 -105
74 -141 -10 -41 -77 -102 -122 -111 l-39 -8 38 -10 37 -9 0 -114 c0 -95 -3
-114 -15 -114 -8 0 -15 -4 -15 -10 0 -6 40 -10 100 -10 92 0 100 2 100 19 0
11 3 26 6 35 3 9 1 16 -4 16 -6 0 -14 -9 -17 -20 -5 -16 -15 -20 -56 -20 l-49
0 0 50 c0 49 1 50 30 50 18 0 33 -6 36 -15 11 -29 19 -15 16 27 -3 32 -7 37
-14 25 -5 -10 -21 -17 -38 -17 -29 0 -30 1 -30 50 l0 50 34 0 c23 0 38 -7 49
-22 16 -23 16 -23 16 10 1 30 -1 32 -34 32 -41 0 -43 6 -11 31 34 26 50 80 41
137 -8 56 -63 115 -122 131 -46 13 -165 14 -143 2z"/>
<path d="M17577 5850 c-143 -43 -170 -224 -44 -292 34 -18 155 -26 127 -8 -8
5 -26 10 -39 10 -38 0 -111 84 -111 126 0 18 4 36 10 39 5 3 16 20 25 38 19
41 59 65 119 73 26 4 49 11 52 15 7 11 -102 10 -139 -1z"/>
<path d="M3250 5822 c-30 -6 -35 -11 -38 -38 -4 -40 21 -61 90 -75 49 -10 60
-9 102 10 44 19 47 23 44 53 -3 31 -6 34 -48 41 -75 13 -113 15 -150 9z"/>
<path d="M12190 5821 c-29 -5 -36 -11 -38 -34 -5 -39 12 -55 75 -73 46 -13 62
-14 99 -4 59 17 81 42 66 75 -9 20 -19 25 -46 25 -19 0 -38 5 -41 10 -7 11
-58 11 -115 1z"/>
<path d="M3332 5643 c4 -21 33 -25 33 -3 0 8 -8 16 -18 18 -14 3 -18 -1 -15
-15z"/>
<path d="M12275 5650 c-8 -14 3 -30 21 -30 8 0 14 9 14 20 0 21 -24 28 -35 10z"/>
<path d="M1575 5251 c-28 -6 -26 -8 20 -14 44 -7 54 -13 84 -52 41 -55 42 -79
4 -147 l-30 -53 -81 -20 c-45 -11 -82 -24 -82 -29 0 -5 33 -6 73 -4 86 6 144
32 183 83 53 70 30 181 -44 219 -36 18 -90 25 -127 17z"/>
<path d="M8670 5255 c-8 -2 -31 -6 -51 -10 -39 -6 -79 -36 -99 -73 -30 -59 -2
-161 54 -197 50 -33 206 -61 206 -37 0 4 -27 14 -60 21 -71 16 -103 38 -130
92 -24 45 -25 70 -6 107 22 42 57 70 99 77 27 5 35 10 25 16 -7 5 -15 8 -18 8
-3 -1 -12 -3 -20 -4z"/>
<path d="M10520 5251 c-22 -7 -19 -8 21 -15 39 -6 51 -13 83 -57 44 -57 44
-81 1 -149 -27 -43 -49 -55 -132 -72 -76 -15 -67 -31 15 -26 134 9 207 72 207
179 0 52 -4 62 -34 93 -20 21 -50 38 -77 45 -47 12 -48 12 -84 2z"/>
<path d="M17578 5250 c-68 -12 -104 -44 -119 -106 -21 -94 27 -170 127 -199
55 -16 134 -20 134 -7 0 4 -33 16 -72 27 -66 18 -75 24 -103 65 -39 58 -39
103 -1 153 21 27 41 40 73 49 31 7 41 13 31 19 -7 5 -15 8 -18 8 -3 -1 -26 -5
-52 -9z"/>
<path d="M5750 5080 c-6 -11 -7 -20 -2 -20 5 0 17 9 27 20 16 18 16 20 2 20
-9 0 -21 -9 -27 -20z"/>
<path d="M5995 5080 c10 -11 22 -20 27 -20 5 0 4 9 -2 20 -6 11 -18 20 -27 20
-14 0 -14 -2 2 -20z"/>
<path d="M14695 5080 c-10 -11 -14 -20 -9 -20 12 1 44 25 44 34 0 12 -17 6
-35 -14z"/>
<path d="M14939 5079 c13 -11 26 -17 29 -14 8 8 -20 35 -37 35 -12 -1 -11 -5
8 -21z"/>
<path d="M3276 4959 c-3 -17 -6 -44 -6 -59 0 -15 -7 -41 -15 -57 -9 -17 -14
-45 -13 -62 2 -25 10 -35 40 -51 21 -11 45 -20 53 -20 10 0 15 -10 15 -27 0
-46 11 -73 30 -73 20 0 30 27 30 83 0 35 2 37 33 38 30 2 30 2 5 6 -25 4 -28
8 -28 44 0 50 -23 85 -60 92 -27 6 -29 10 -32 59 -3 45 -6 53 -24 56 -17 2
-23 -4 -28 -29z"/>
<path d="M12224 4979 c-4 -7 -8 -36 -10 -65 -1 -29 -9 -63 -18 -76 -9 -12 -16
-33 -16 -46 0 -28 45 -71 81 -79 23 -4 28 -12 34 -50 6 -44 27 -65 46 -46 5 5
12 33 16 61 5 45 9 51 32 55 l26 4 -27 2 c-26 1 -28 4 -28 41 0 55 -17 88 -48
92 -23 3 -27 10 -37 58 -10 55 -33 77 -51 49z"/>
<path d="M5790 4929 c-46 -19 -59 -37 -49 -72 23 -81 27 -86 67 -75 21 6 72 8
117 4 l80 -6 18 54 c9 29 17 56 17 60 0 4 -19 16 -42 26 -47 22 -164 26 -208
9z"/>
<path d="M14722 4925 c-42 -18 -48 -36 -30 -93 l15 -47 122 0 122 0 15 53 c18
62 12 76 -45 92 -52 14 -160 12 -199 -5z"/>
<path d="M1015 4901 c-16 -8 -11 -10 25 -11 90 -3 121 -20 177 -95 42 -55 51
-74 46 -95 -9 -39 -79 -154 -102 -168 -37 -22 -211 -62 -244 -56 -12 3 -4 -3
18 -12 32 -12 60 -14 134 -9 111 8 152 25 220 93 52 52 77 118 68 177 -8 48
-53 121 -95 153 -31 24 -44 27 -131 29 -53 2 -105 -1 -116 -6z"/>
<path d="M2013 4853 c-62 -31 -110 -59 -108 -61 2 -3 41 13 85 34 89 41 107
43 234 23 71 -11 83 -16 114 -48 44 -47 147 -182 155 -202 7 -20 -36 -113 -87
-188 -20 -29 -36 -56 -36 -60 0 -4 -12 -21 -27 -37 -25 -28 -46 -35 -188 -70
-88 -21 -176 -38 -195 -38 -19 0 -64 15 -100 33 -62 31 -64 31 -41 7 25 -27
158 -82 219 -92 21 -3 94 1 164 9 139 16 179 31 268 97 30 22 56 40 60 40 9 0
90 126 117 182 41 85 34 112 -69 268 -94 143 -106 149 -301 156 l-152 5 -112
-58z"/>
<path d="M7925 4903 c-84 -11 -113 -32 -176 -126 -77 -115 -109 -179 -109
-215 0 -37 22 -91 66 -159 19 -29 34 -56 34 -59 0 -9 53 -55 117 -100 77 -56
119 -69 260 -84 108 -12 168 -9 202 11 9 5 43 20 76 33 33 13 65 33 72 43 11
16 1 13 -54 -13 -38 -18 -75 -33 -83 -34 -20 0 -330 79 -351 90 -28 16 -169
262 -169 297 0 38 162 241 198 249 15 3 43 10 62 15 19 5 63 9 98 9 52 0 75
-6 133 -36 39 -19 75 -34 81 -32 5 2 -41 29 -104 61 l-114 57 -105 -1 c-57 -1
-117 -4 -134 -6z"/>
<path d="M9035 4893 c-34 -18 -75 -53 -75 -64 0 -5 -11 -25 -25 -45 -28 -41
-33 -104 -13 -151 23 -53 86 -119 140 -145 59 -30 186 -45 248 -30 33 8 27 10
-81 36 -83 19 -123 34 -137 49 -23 25 -92 154 -92 172 0 15 86 134 109 152 9
7 47 15 86 19 90 9 61 22 -50 23 -54 0 -90 -5 -110 -16z"/>
<path d="M9962 4902 c-9 -6 7 -11 46 -15 84 -9 101 -19 155 -95 49 -68 51 -79
26 -134 -24 -55 -68 -117 -91 -129 -32 -17 -171 -50 -218 -51 l-44 -1 39 -14
c85 -31 270 0 323 53 7 8 17 14 22 14 4 0 25 25 45 55 52 79 53 138 3 216 -56
88 -85 103 -198 107 -52 1 -101 -1 -108 -6z"/>
<path d="M10948 4851 c-64 -33 -119 -65 -123 -70 -3 -6 7 -4 22 4 43 22 94 45
143 65 41 16 53 17 143 4 53 -7 105 -18 115 -23 34 -18 178 -197 187 -232 4
-16 -4 -43 -23 -79 -45 -85 -125 -214 -140 -226 -13 -10 -96 -31 -283 -74 -48
-11 -95 -17 -105 -14 -22 7 -81 33 -106 46 -28 14 -21 -8 8 -27 14 -9 65 -30
113 -47 l86 -30 125 12 c69 7 141 16 160 21 50 12 216 122 235 156 8 15 24 42
35 58 57 88 72 128 68 180 -3 34 -14 66 -34 96 -16 24 -33 52 -39 61 -95 157
-115 167 -318 174 l-152 5 -117 -60z"/>
<path d="M16852 4899 c-88 -17 -120 -48 -217 -210 -44 -76 -47 -84 -43 -138 3
-48 13 -72 59 -147 44 -72 68 -100 129 -146 45 -35 95 -63 125 -72 68 -20 248
-40 292 -33 53 9 213 79 213 94 0 8 -23 1 -66 -19 l-66 -31 -176 44 c-124 31
-183 50 -195 64 -24 25 -105 163 -136 232 l-24 52 38 58 c21 31 61 85 89 119
48 58 55 63 118 78 109 26 164 22 252 -20 117 -56 100 -35 -23 29 l-109 57
-108 -1 c-60 -1 -128 -5 -152 -10z"/>
<path d="M17967 4889 c-21 -11 -46 -34 -57 -52 -10 -18 -23 -37 -29 -43 -21
-25 -32 -92 -21 -138 15 -67 83 -143 157 -176 50 -22 193 -35 238 -22 27 8 22
11 -65 31 -144 34 -151 39 -199 121 -61 106 -61 106 3 187 30 39 62 73 70 76
8 3 43 9 78 13 83 9 51 23 -57 23 -61 0 -89 -5 -118 -20z"/>
<path d="M5730 4725 c0 -43 3 -75 7 -72 7 7 4 139 -3 146 -2 2 -4 -31 -4 -74z"/>
<path d="M14670 4728 c0 -46 4 -78 10 -78 13 0 13 120 0 140 -7 10 -10 -9 -10
-62z"/>
<path d="M6033 4720 c0 -41 2 -58 4 -37 2 20 2 54 0 75 -2 20 -4 3 -4 -38z"/>
<path d="M12120 4776 c0 -8 4 -17 9 -20 5 -4 7 3 4 14 -6 23 -13 26 -13 6z"/>
<path d="M3170 4771 c0 -5 7 -12 16 -15 14 -5 15 -4 4 9 -14 17 -20 19 -20 6z"/>
<path d="M14970 4716 c0 -37 4 -66 10 -66 6 0 10 26 10 59 0 33 -4 63 -10 66
-6 4 -10 -18 -10 -59z"/>
<path d="M5863 4673 c-25 -10 -12 -23 21 -23 41 0 56 15 23 24 -25 6 -27 6
-44 -1z"/>
<path d="M14802 4674 c-20 -9 -3 -24 26 -24 30 0 70 19 42 20 -8 0 -24 2 -35
5 -11 2 -26 2 -33 -1z"/>
<path d="M5808 4663 c6 -2 18 -2 25 0 6 3 1 5 -13 5 -14 0 -19 -2 -12 -5z"/>
<path d="M14758 4663 c7 -3 16 -2 19 1 4 3 -2 6 -13 5 -11 0 -14 -3 -6 -6z"/>
<path d="M5733 4540 c0 -47 2 -66 4 -42 2 23 2 61 0 85 -2 23 -4 4 -4 -43z"/>
<path d="M6033 4545 c0 -44 2 -61 4 -37 2 23 2 59 0 80 -2 20 -4 1 -4 -43z"/>
<path d="M14670 4538 c0 -57 3 -78 10 -68 13 20 13 150 0 150 -6 0 -10 -34
-10 -82z"/>
<path d="M14970 4551 c0 -41 4 -71 10 -71 6 0 10 28 10 64 0 36 -4 68 -10 71
-6 4 -10 -20 -10 -64z"/>
<path d="M9798 4498 c5 -5 16 -8 23 -6 8 3 3 7 -10 11 -17 4 -21 3 -13 -5z"/>
<path d="M18330 4500 c-9 -6 -10 -10 -3 -10 6 0 15 5 18 10 8 12 4 12 -15 0z"/>
<path d="M5750 4434 c-15 -39 -12 -50 18 -64 65 -30 245 -19 259 16 3 8 0 27
-7 43 -11 28 -13 28 -38 15 -36 -19 -159 -18 -195 1 -26 14 -28 13 -37 -11z"/>
<path d="M9535 4434 c-14 -15 -25 -37 -25 -50 0 -25 45 -84 65 -84 24 0 65
-41 65 -66 0 -57 -88 -54 -112 3 l-12 28 -4 -34 c-4 -42 8 -51 73 -51 59 0 90
18 98 57 7 38 -9 66 -51 88 -20 11 -45 26 -54 34 -22 17 -23 54 -3 71 20 17
62 5 70 -20 10 -31 26 -24 19 8 -10 41 -12 42 -60 42 -36 0 -50 -5 -69 -26z"/>
<path d="M14692 4426 c-14 -36 -6 -47 47 -65 62 -20 192 -9 228 21 19 15 -5
71 -26 62 -34 -15 -179 -17 -209 -2 -28 15 -29 14 -40 -16z"/>
<path d="M4366 4275 c-53 -19 -58 -26 -45 -64 9 -24 15 -30 28 -25 62 26 131
27 220 3 9 -2 21 8 29 25 13 27 13 31 -4 43 -46 34 -159 43 -228 18z"/>
<path d="M13307 4276 c-50 -19 -51 -19 -43 -61 6 -29 11 -35 24 -30 65 27 188
28 220 2 17 -14 30 0 34 38 2 24 -2 32 -27 44 -42 20 -161 25 -208 7z"/>
<path d="M4301 4098 c-1 -53 3 -88 9 -88 12 0 12 127 0 155 -6 13 -9 -9 -9
-67z"/>
<path d="M13240 4096 c0 -62 3 -87 12 -84 7 3 11 29 9 79 -3 108 -21 113 -21
5z"/>
<path d="M4607 4163 c-11 -11 -8 -153 3 -153 6 0 10 33 10 80 0 80 -1 86 -13
73z"/>
<path d="M13547 4153 c-11 -10 -8 -143 3 -143 6 0 10 32 10 75 0 75 -1 81 -13
68z"/>
<path d="M4301 3908 c0 -56 3 -76 9 -63 12 28 12 145 0 145 -6 0 -10 -34 -9
-82z"/>
<path d="M4600 3920 c0 -40 4 -70 10 -70 6 0 10 30 10 70 0 40 -4 70 -10 70
-6 0 -10 -30 -10 -70z"/>
<path d="M13241 3908 c1 -72 2 -80 12 -57 16 34 14 132 -1 137 -9 3 -12 -20
-11 -80z"/>
<path d="M13540 3926 c0 -39 5 -68 13 -74 9 -8 11 5 9 64 -4 90 -22 99 -22 10z"/>
<path d="M4557 3833 c-24 -25 -132 -30 -181 -9 -22 9 -40 15 -41 14 -7 -9 -25
-74 -25 -88 0 -48 186 -75 258 -37 41 22 46 35 32 86 -13 49 -21 55 -43 34z"/>
<path d="M13262 3794 c-14 -51 -11 -59 26 -78 66 -33 204 -27 252 12 20 16 20
19 4 65 -18 52 -18 52 -54 32 -14 -8 -51 -14 -85 -14 -34 0 -71 6 -85 14 -38
22 -45 19 -58 -31z"/>
<path d="M8693 3758 c-4 -7 -8 -22 -8 -33 0 -14 -8 -21 -30 -25 -16 -3 -39
-10 -50 -17 l-20 -12 20 -15 c11 -8 34 -16 51 -16 28 0 32 -4 37 -37 4 -21 4
-48 1 -59 -16 -63 66 -91 99 -35 9 16 17 36 17 45 0 11 10 16 33 16 17 0 41 7
51 15 20 15 20 15 0 30 -10 8 -31 15 -45 15 -27 0 -39 16 -39 52 0 11 -9 36
-21 54 -17 28 -27 34 -54 34 -19 0 -37 -6 -42 -12z"/>
<path d="M17637 3763 c-4 -3 -7 -19 -7 -35 0 -23 -4 -28 -25 -28 -27 0 -75
-19 -75 -30 0 -10 48 -30 74 -30 19 0 24 -7 30 -37 3 -21 6 -54 6 -74 0 -39
12 -49 55 -49 26 0 38 13 52 55 7 22 18 32 39 36 42 9 74 20 74 28 0 9 -52 31
-75 31 -16 0 -23 10 -33 52 -6 28 -19 59 -28 70 -17 17 -74 25 -87 11z"/>
<path d="M1714 3690 c-26 -11 -35 -24 -43 -64 -6 -29 -11 -31 -55 -36 -54 -6
-84 -32 -56 -50 25 -16 99 -23 113 -11 8 6 29 8 50 4 56 -9 86 3 102 40 16 38
10 80 -14 101 -22 20 -70 28 -97 16z"/>
<path d="M10665 3691 c-29 -12 -53 -42 -57 -71 -2 -20 -10 -26 -33 -28 -59 -5
-75 -12 -75 -32 0 -24 8 -29 62 -36 33 -5 48 -2 60 9 10 10 20 12 29 6 49 -31
129 12 129 70 0 56 -66 102 -115 82z"/>
<path d="M1857 3674 c-4 -4 -7 -20 -7 -36 0 -29 1 -29 51 -26 53 3 85 26 64
47 -13 13 -98 25 -108 15z"/>
<path d="M10796 3671 c-4 -5 -4 -22 0 -36 6 -24 10 -26 52 -23 47 3 77 28 57
47 -15 15 -102 25 -109 12z"/>
<path d="M5735 3645 c-24 -23 -34 -55 -17 -55 5 0 20 13 35 28 46 48 28 74
-18 27z"/>
<path d="M5990 3663 c0 -11 51 -73 61 -73 19 0 8 39 -17 59 -27 21 -44 27 -44
14z"/>
<path d="M14686 3649 c-25 -19 -36 -59 -17 -59 9 0 61 64 61 74 0 12 -18 6
-44 -15z"/>
<path d="M14940 3656 c0 -16 38 -66 51 -66 18 0 9 37 -14 58 -27 25 -37 28
-37 8z"/>
<path d="M4290 3581 c0 -23 38 -63 52 -55 8 5 -24 58 -42 69 -6 4 -10 -3 -10
-14z"/>
<path d="M13230 3589 c0 -24 34 -63 50 -57 9 3 4 14 -18 39 -22 24 -32 29 -32
18z"/>
<path d="M13537 3566 c-15 -19 -27 -38 -27 -43 0 -16 -40 -43 -63 -43 -31 0
-47 -18 -47 -52 l0 -28 -340 0 -340 0 0 25 c0 18 -5 25 -20 25 -18 0 -20 -7
-20 -70 0 -63 2 -70 20 -70 15 0 20 7 20 25 l0 25 340 0 340 0 0 -28 c0 -36
16 -52 52 -52 15 0 28 -4 28 -10 0 -5 6 -10 13 -10 7 0 18 -13 24 -30 8 -20
18 -30 32 -30 18 0 21 6 21 40 l0 40 50 0 c28 0 50 -4 50 -10 0 -5 6 -10 14
-10 8 0 18 -10 22 -22 16 -53 54 -51 54 2 l0 40 55 0 c30 0 55 -4 55 -10 0 -5
6 -10 14 -10 8 0 18 -10 22 -22 15 -51 54 -51 54 0 0 26 6 41 20 50 17 10 20
23 20 87 0 62 -4 79 -20 95 -12 12 -20 33 -20 55 0 46 -33 50 -49 5 -5 -16
-17 -30 -25 -30 -9 0 -16 -4 -16 -10 0 -5 -25 -10 -55 -10 l-55 0 0 40 c0 33
-3 40 -19 40 -12 0 -23 -11 -30 -30 -5 -16 -17 -30 -25 -30 -9 0 -16 -4 -16
-10 0 -5 -25 -10 -55 -10 -55 0 -55 0 -55 31 0 17 5 40 11 51 20 38 -6 41 -34
4z m28 -131 c52 -51 12 -135 -65 -135 -31 0 -70 44 -70 78 0 74 84 109 135 57z
m190 0 c52 -51 11 -135 -66 -135 -31 0 -69 44 -69 81 0 72 84 106 135 54z"/>
<path d="M4591 3564 c-12 -15 -21 -32 -21 -38 0 -19 -38 -46 -64 -46 -28 0
-42 -15 -51 -53 l-7 -27 -334 0 -334 0 0 25 c0 18 -5 25 -20 25 -18 0 -20 -7
-20 -70 0 -63 2 -70 20 -70 15 0 20 7 20 25 l0 25 334 0 334 0 7 -27 c9 -38
23 -53 49 -53 26 -1 55 -22 70 -52 6 -13 19 -24 29 -26 14 -3 17 4 17 37 l0
41 55 0 c30 0 55 -4 55 -10 0 -5 6 -10 13 -10 7 0 18 -14 24 -31 17 -44 47
-36 51 14 l3 37 55 0 c30 0 54 -4 54 -10 0 -5 6 -10 13 -10 7 0 18 -13 24 -30
16 -43 43 -40 43 6 0 23 7 42 19 52 20 17 25 48 22 134 -1 37 -5 48 -21 53
-16 5 -20 15 -20 46 0 45 -24 55 -39 17 -16 -41 -47 -58 -106 -58 l-55 0 0 40
c0 45 -24 56 -39 18 -16 -40 -47 -58 -103 -58 l-51 0 6 55 c6 61 -1 68 -32 29z
m14 -110 c24 -10 46 -60 39 -89 -8 -31 -49 -65 -80 -65 -36 0 -75 40 -76 78
-2 59 58 98 117 76z m190 0 c24 -10 46 -60 39 -89 -8 -31 -49 -65 -80 -65 -45
0 -79 46 -75 102 3 41 67 70 116 52z"/>
<path d="M5870 3502 c-71 -5 -98 -13 -124 -37 -23 -21 -25 -27 -15 -49 9 -19
9 -29 1 -39 -13 -15 -16 -387 -3 -387 20 0 32 81 29 211 l-3 136 41 17 c57 23
131 24 174 1 19 -11 38 -18 43 -17 7 2 10 -81 7 -228 -1 -49 4 -85 13 -103 15
-30 34 -20 23 10 -4 9 -7 96 -7 192 0 126 -2 172 -10 161 -8 -12 -10 -10 -6
10 2 14 8 33 12 42 17 41 -84 87 -175 80z"/>
<path d="M14787 3499 c-79 -9 -113 -35 -109 -82 1 -20 -2 -38 -7 -42 -14 -8
-14 -385 0 -385 6 0 9 -12 7 -27 -5 -41 53 -67 152 -68 74 0 149 24 157 50 2
6 -6 25 -17 43 -18 29 -23 32 -37 20 -22 -18 -184 -18 -206 0 -9 8 -20 12 -24
9 -4 -3 -6 62 -5 144 2 90 0 162 -7 182 -10 29 -10 30 4 12 15 -18 16 -18 44
-2 52 30 201 19 201 -15 0 -7 4 -7 13 0 9 8 11 -20 9 -136 -2 -137 6 -204 28
-217 5 -3 9 81 9 195 0 120 -4 200 -9 200 -6 0 -10 -5 -10 -12 0 -6 -3 -9 -6
-5 -3 3 0 22 7 41 12 33 11 38 -8 57 -28 29 -115 46 -186 38z"/>
<path d="M6700 3435 c0 -8 7 -15 15 -15 13 0 15 -33 15 -235 0 -231 0 -235
-21 -235 -15 0 -25 -11 -36 -40 -9 -22 -22 -40 -28 -40 -7 0 -15 -7 -19 -15
-3 -10 3 -17 19 -21 35 -9 35 -65 0 -96 -33 -28 -32 -38 5 -38 27 0 30 -3 30
-32 -1 -36 -15 -61 -43 -71 -25 -9 -16 -31 14 -35 13 -2 28 -8 33 -13 17 -16
116 -11 122 6 4 9 19 15 35 15 32 0 39 17 12 27 -28 10 -42 35 -43 71 0 27 3
32 24 32 37 0 39 15 6 41 -24 19 -30 32 -30 62 0 35 2 37 30 37 33 0 40 17 13
27 -27 10 -41 27 -45 54 -2 16 -11 25 -25 27 l-23 3 0 235 c0 201 2 234 15
234 27 0 15 17 -16 24 -47 9 -59 7 -59 -9z m82 -522 c22 -20 23 -51 1 -75 -20
-22 -51 -23 -75 -1 -22 20 -23 42 -2 71 18 26 50 28 76 5z m0 -130 c22 -20 23
-51 1 -75 -20 -22 -51 -23 -75 -1 -24 21 -23 48 2 73 24 24 47 25 72 3z"/>
<path d="M15640 3435 c0 -8 7 -15 15 -15 13 0 15 -33 15 -234 l0 -235 -22 -3
c-15 -2 -24 -11 -26 -25 -2 -12 -15 -33 -28 -47 -28 -27 -25 -46 7 -46 29 0
25 -52 -6 -81 -32 -31 -32 -49 0 -49 22 0 25 -4 25 -34 0 -25 -8 -42 -29 -62
-33 -31 -32 -44 4 -44 13 0 27 -4 30 -10 10 -17 122 -12 129 5 3 8 17 15 31
15 29 0 34 17 8 27 -28 10 -42 35 -43 71 0 29 3 32 30 32 20 0 30 5 30 15 0 8
-4 15 -9 15 -22 0 -41 34 -41 71 0 35 3 39 25 39 30 0 33 20 5 27 -11 3 -23
17 -26 32 -9 35 -23 51 -45 51 -18 0 -19 12 -19 235 0 202 2 235 15 235 27 0
15 17 -16 24 -47 9 -59 7 -59 -9z m85 -521 c26 -26 16 -77 -18 -88 -38 -14
-61 2 -65 45 -5 52 47 79 83 43z m-1 -130 c19 -18 21 -65 4 -82 -17 -17 -63
-15 -78 3 -43 52 27 127 74 79z"/>
<path d="M18037 3266 c-91 -25 -178 -118 -197 -212 -29 -138 39 -269 169 -327
36 -16 60 -19 127 -15 75 4 88 8 137 40 33 22 67 56 87 88 30 46 34 62 38 135
5 94 -11 144 -68 209 -67 76 -191 111 -293 82z m143 -176 c26 -26 25 -48 -2
-77 -12 -13 -16 -23 -10 -23 19 0 42 -44 35 -68 -7 -27 -51 -52 -91 -52 -33 0
-82 34 -82 56 0 19 34 18 50 -1 22 -26 80 -16 80 14 0 24 -20 41 -47 41 -33 0
-29 28 5 32 20 2 28 9 30 27 6 41 -36 55 -65 21 -10 -11 -23 -20 -30 -20 -24
0 -24 20 1 45 32 32 96 35 126 5z"/>
<path d="M7338 3185 c-10 -23 -17 -25 -72 -26 -90 0 -158 -14 -172 -34 -31
-43 -29 -249 4 -292 15 -20 29 -24 124 -29 99 -6 107 -9 117 -30 6 -13 15 -24
21 -24 13 0 13 6 0 30 -8 16 -4 18 45 25 29 3 139 3 243 0 209 -7 232 -3 279
54 19 22 22 38 23 114 0 110 -14 141 -77 168 -43 18 -61 19 -258 13 -116 -4
-224 -4 -239 0 -27 7 -27 8 -12 31 15 22 15 25 1 25 -8 0 -21 -11 -27 -25z"/>
<path d="M16281 3187 c-9 -22 -16 -24 -112 -30 -143 -9 -143 -10 -146 -172 -2
-116 0 -127 20 -150 20 -22 32 -26 121 -32 90 -6 102 -9 124 -32 l23 -26 -5
26 c-5 25 -3 27 38 33 25 4 132 4 239 1 185 -6 197 -5 236 15 62 31 81 69 81
161 0 63 -4 82 -23 110 -42 62 -54 64 -323 60 -166 -2 -244 0 -248 8 -4 6 -2
20 4 31 9 16 8 20 -5 20 -8 0 -20 -11 -24 -23z"/>
<path d="M8411 3145 c-30 -26 -41 -55 -21 -55 18 0 100 55 97 65 -7 20 -45 15
-76 -10z"/>
<path d="M8668 3159 c-6 -4 -28 -4 -49 -2 -34 5 -39 3 -39 -14 0 -10 -6 -25
-12 -31 -20 -20 -16 -199 4 -238 l17 -30 230 0 c287 1 274 -6 279 150 4 102 3
104 -25 134 l-28 31 -183 3 c-101 2 -188 0 -194 -3z m178 -29 l85 0 -3 -52 -3
-53 -74 -3 c-89 -4 -107 8 -113 74 -2 34 0 43 10 39 8 -3 52 -5 98 -5z m-90
-171 c13 18 25 21 95 21 l80 0 -3 -52 -3 -53 -91 -1 -92 -1 -6 51 c-3 28 -5
67 -4 86 1 21 3 14 5 -19 4 -51 5 -53 19 -32z"/>
<path d="M9120 3138 c0 -7 7 -22 15 -32 22 -29 40 -7 19 22 -17 24 -34 29 -34
10z"/>
<path d="M5742 2981 c-7 -21 -12 -41 -12 -44 0 -12 88 -38 144 -43 43 -3 76 1
111 13 47 17 50 20 48 51 -2 44 -20 67 -41 50 -20 -17 -197 -17 -214 0 -19 19
-24 15 -36 -27z"/>
<path d="M5125 3000 c-57 -14 -83 -29 -119 -66 -52 -54 -66 -111 -66 -275 0
-187 24 -251 115 -304 88 -52 199 -42 276 23 66 57 92 149 49 172 -31 17 -56
4 -84 -44 -57 -98 -191 -98 -232 -1 -20 49 -20 285 1 325 22 43 68 63 129 57
51 -5 56 -8 122 -93 16 -22 26 -26 47 -20 46 11 52 40 22 102 -50 102 -154
152 -260 124z"/>
<path d="M8380 2902 c0 -29 42 -62 78 -62 18 0 32 3 32 8 0 7 -94 72 -104 72
-3 0 -6 -8 -6 -18z"/>
<path d="M9125 2888 c-10 -15 -11 -24 -5 -26 12 -4 50 26 50 40 0 17 -29 7
-45 -14z"/>
<path d="M3530 2655 c0 -10 -10 -15 -30 -15 -33 0 -40 -17 -12 -27 25 -9 32
-23 32 -65 0 -34 -3 -38 -25 -38 -16 0 -25 -6 -25 -15 0 -8 4 -15 9 -15 20 0
41 -33 41 -66 0 -30 -3 -34 -25 -34 -31 0 -34 -29 -5 -37 11 -3 23 -17 26 -32
9 -35 23 -51 45 -51 18 0 19 -12 19 -235 0 -202 -2 -235 -15 -235 -8 0 -15 -4
-15 -10 0 -5 20 -10 45 -10 25 0 45 5 45 10 0 6 -7 10 -15 10 -13 0 -15 33
-15 234 l0 235 23 3 c14 2 23 11 25 25 2 12 14 32 27 45 32 30 31 48 0 48 -22
0 -25 4 -25 35 0 26 6 39 25 51 14 9 25 23 25 30 0 8 -10 14 -25 14 -22 0 -25
4 -25 34 0 23 8 41 25 57 31 30 31 39 1 39 -13 0 -26 7 -30 15 -4 11 -21 15
-66 15 -47 0 -60 -3 -60 -15z m99 -149 c7 -8 11 -30 9 -48 -6 -67 -98 -57 -98
12 0 14 5 31 12 38 16 16 63 15 77 -2z m-1 -128 c20 -20 15 -76 -7 -88 -43
-22 -81 1 -81 49 0 34 17 51 50 51 14 0 31 -5 38 -12z"/>
<path d="M12474 2655 c-4 -9 -19 -15 -37 -15 l-32 0 28 -25 c21 -20 27 -35 27
-65 0 -36 -3 -40 -25 -40 -14 0 -25 -4 -25 -8 0 -5 11 -18 25 -30 32 -28 36
-92 6 -92 -28 0 -34 -16 -12 -32 10 -7 26 -30 34 -51 11 -26 22 -37 36 -37 21
0 21 -5 21 -235 0 -202 -2 -235 -15 -235 -8 0 -15 -4 -15 -10 0 -5 20 -10 45
-10 25 0 45 5 45 10 0 6 -7 10 -15 10 -13 0 -15 33 -15 235 0 228 1 235 20
235 13 0 25 12 35 37 8 20 24 43 35 50 23 16 18 33 -11 33 -30 0 -26 64 6 92
27 23 25 38 -6 38 -15 0 -19 7 -19 34 0 43 9 66 25 66 7 0 15 7 19 15 4 11 -2
15 -23 15 -16 0 -31 7 -35 15 -4 11 -21 15 -61 15 -40 0 -57 -4 -61 -15z m101
-155 c41 -45 -18 -110 -70 -76 -26 17 -32 45 -15 77 14 25 62 25 85 -1z m0
-130 c41 -46 -29 -116 -75 -75 -24 22 -26 58 -4 79 21 22 57 20 79 -4z"/>
<path d="M964 2526 c-107 -50 -165 -141 -165 -261 0 -85 22 -143 76 -199 142
-144 387 -100 467 84 27 61 27 169 0 231 -61 141 -239 210 -378 145z m186
-146 c23 -23 27 -50 7 -50 -7 0 -20 9 -30 20 -36 43 -97 13 -97 -48 0 -33 1
-34 18 -19 29 26 79 21 107 -9 32 -35 32 -74 -1 -113 -21 -26 -33 -31 -69 -31
-36 0 -48 5 -68 30 -47 55 -47 154 -1 210 22 25 33 30 70 30 31 0 50 -6 64
-20z"/>
<path d="M1047 2252 c-22 -24 -21 -55 1 -75 38 -34 85 -13 85 38 0 52 -53 74
-86 37z"/>
<path d="M10600 2439 c0 -14 41 -48 58 -49 10 0 10 4 0 19 -15 24 -58 46 -58
30z"/>
<path d="M2650 2430 c11 -8 6 -9 -20 -8 -29 3 -36 -1 -49 -27 -23 -48 -27
-177 -6 -230 14 -39 20 -45 46 -45 16 0 29 -5 29 -11 0 -8 14 -9 43 -5 23 3
129 6 235 8 l192 1 22 36 c43 70 24 258 -28 278 -15 6 -78 -10 -101 -25 -10
-6 -8 -17 8 -48 24 -46 22 -120 -4 -173 -21 -41 -21 -39 0 -43 9 -2 -64 -3
-163 -3 l-179 0 -4 25 c-5 32 -5 188 0 220 l4 25 165 0 c140 0 169 3 189 17
23 17 16 17 -185 17 -139 0 -204 -3 -194 -9z"/>
<path d="M3250 2432 c0 -10 56 -52 70 -52 14 0 13 12 -6 38 -14 21 -64 32 -64
14z"/>
<path d="M11590 2429 c11 -7 8 -9 -14 -7 -45 5 -65 -31 -72 -128 -6 -68 -4
-87 14 -127 18 -41 25 -47 52 -47 17 0 29 -4 25 -9 -3 -6 32 -8 87 -5 51 3
158 6 238 7 l145 2 23 45 c37 74 27 214 -18 255 -18 16 -27 17 -61 8 -32 -8
-37 -8 -28 3 9 11 -25 13 -197 13 -143 0 -204 -3 -194 -10z m358 -31 c-7 -4
-3 -16 11 -33 28 -37 29 -125 1 -180 -24 -47 -24 -43 -2 -48 9 -2 -22 -2 -70
1 -71 4 -88 2 -88 -9 0 -12 -2 -12 -9 0 -7 11 -28 13 -97 9 -49 -3 -83 -3 -77
-1 10 3 9 12 -3 35 -15 29 -15 98 -1 213 2 19 9 20 174 20 94 0 166 -3 161 -7z"/>
<path d="M12200 2434 c0 -12 45 -54 58 -54 18 0 15 24 -6 43 -18 16 -52 23
-52 11z"/>
<path d="M10030 2420 c0 -6 30 -10 70 -10 40 0 70 4 70 10 0 6 -30 10 -70 10
-40 0 -70 -4 -70 -10z"/>
<path d="M10200 2420 c0 -6 28 -10 64 -10 36 0 68 5 71 10 4 6 -20 10 -64 10
-41 0 -71 -4 -71 -10z"/>
<path d="M10395 2412 c-22 -9 -41 -16 -43 -17 -1 -1 5 -18 13 -38 8 -20 15
-59 15 -87 0 -28 -7 -67 -15 -87 -8 -20 -14 -37 -13 -38 5 -3 85 -25 91 -25
14 0 37 50 47 101 13 67 -2 150 -33 183 -21 23 -23 23 -62 8z"/>
<path d="M9924 2388 c-32 -62 -19 -233 19 -259 5 -4 22 -2 38 5 21 7 27 15 23
26 -28 63 -27 156 0 221 5 13 -1 19 -25 28 -18 6 -33 11 -35 11 -2 0 -11 -15
-20 -32z"/>
<path d="M4325 2400 c-3 -5 -2 -10 4 -10 5 0 13 5 16 10 3 6 2 10 -4 10 -5 0
-13 -4 -16 -10z"/>
<path d="M4550 2395 c7 -9 15 -13 17 -11 7 7 -7 26 -19 26 -6 0 -6 -6 2 -15z"/>
<path d="M13265 2399 c-11 -17 -2 -18 19 -3 17 12 17 14 4 14 -9 0 -20 -5 -23
-11z"/>
<path d="M13490 2395 c7 -9 15 -13 17 -11 7 7 -7 26 -19 26 -6 0 -6 -6 2 -15z"/>
<path d="M4345 2306 c-38 -12 -40 -14 -38 -51 3 -46 8 -52 28 -35 25 21 153
25 197 7 l37 -15 10 30 c8 22 8 35 0 44 -27 33 -157 44 -234 20z"/>
<path d="M13315 2313 c-11 -2 -33 -9 -48 -15 -25 -10 -27 -14 -21 -42 9 -45
11 -46 49 -30 44 18 136 18 180 0 33 -14 36 -14 46 5 19 37 7 62 -36 75 -39
12 -131 16 -170 7z"/>
<path d="M13231 2127 c-1 -56 3 -86 9 -82 12 7 12 122 0 150 -6 13 -9 -10 -9
-68z"/>
<path d="M4280 2125 c0 -43 4 -75 10 -75 6 0 10 32 10 75 0 43 -4 75 -10 75
-6 0 -10 -32 -10 -75z"/>
<path d="M4586 2184 c-10 -26 -7 -132 4 -139 6 -4 10 23 10 74 0 82 -3 94 -14
65z"/>
<path d="M13527 2178 c-16 -57 -1 -168 17 -123 9 24 7 118 -3 133 -6 10 -10 8
-14 -10z"/>
<path d="M3283 2142 c-38 -32 -41 -42 -13 -42 21 0 60 36 60 57 0 20 -12 16
-47 -15z"/>
<path d="M9820 2161 c0 -6 4 -13 10 -16 6 -3 7 1 4 9 -7 18 -14 21 -14 7z"/>
<path d="M12233 2146 c-37 -31 -42 -46 -15 -46 24 0 55 34 50 56 -3 15 -7 13
-35 -10z"/>
<path d="M10628 2138 c-30 -21 -36 -38 -15 -38 17 0 50 36 46 49 -2 5 -16 1
-31 -11z"/>
<path d="M10020 2120 c0 -6 32 -10 75 -10 43 0 75 4 75 10 0 6 -32 10 -75 10
-43 0 -75 -4 -75 -10z"/>
<path d="M10200 2120 c0 -6 32 -10 76 -10 47 0 73 4 69 10 -3 6 -37 10 -76 10
-39 0 -69 -4 -69 -10z"/>
<path d="M4280 1945 c0 -43 4 -75 10 -75 6 0 10 32 10 75 0 43 -4 75 -10 75
-6 0 -10 -32 -10 -75z"/>
<path d="M4580 1956 c0 -36 5 -68 10 -71 6 -4 10 20 10 64 0 41 -4 71 -10 71
-6 0 -10 -28 -10 -64z"/>
<path d="M13231 1943 c0 -53 3 -72 9 -58 12 28 12 123 0 130 -6 4 -10 -22 -9
-72z"/>
<path d="M13527 2013 c-16 -15 -2 -137 14 -127 5 3 9 34 9 70 0 59 -6 74 -23
57z"/>
<path d="M5337 1983 c-4 -3 -7 -19 -7 -36 0 -16 -9 -40 -20 -54 -34 -44 -23
-183 15 -183 11 0 15 -11 15 -45 0 -43 1 -45 20 -35 11 6 20 16 20 22 0 6 11
21 26 34 20 19 36 24 80 24 l54 0 0 -45 c0 -43 1 -45 20 -35 11 6 20 16 20 22
0 6 11 21 26 34 19 19 36 24 75 24 l49 0 0 -40 c0 -29 4 -40 15 -40 9 0 19 8
22 18 11 28 52 62 77 62 30 0 46 18 46 52 l0 28 340 0 340 0 0 -25 c0 -18 5
-25 20 -25 18 0 20 7 20 70 0 63 -2 70 -20 70 -15 0 -20 -7 -20 -25 l0 -25
-335 0 -335 0 -6 28 c-10 40 -23 52 -55 52 -16 0 -29 5 -29 10 0 6 -6 10 -13
10 -7 0 -18 14 -24 30 -17 45 -43 39 -43 -10 l0 -40 -55 0 c-30 0 -55 5 -55
10 0 6 -6 10 -13 10 -7 0 -18 14 -24 30 -8 20 -18 30 -32 30 -18 0 -21 -6 -21
-40 l0 -40 -55 0 c-30 0 -55 5 -55 10 0 6 -6 10 -13 10 -7 0 -18 14 -24 30
-11 28 -31 38 -46 23z m308 -118 c50 -49 18 -135 -51 -135 -41 0 -72 26 -80
67 -5 27 -1 37 24 63 37 37 74 39 107 5z m190 0 c51 -50 18 -135 -52 -135 -42
0 -83 38 -83 75 0 35 50 85 85 85 14 0 37 -11 50 -25z"/>
<path d="M14280 1952 c0 -26 -6 -41 -20 -50 -17 -10 -20 -23 -20 -92 0 -69 3
-82 20 -92 14 -9 20 -24 20 -50 0 -43 22 -52 40 -17 25 46 48 59 105 59 l55 0
0 -40 c0 -45 21 -55 40 -19 25 45 48 59 100 59 l50 0 0 -41 c0 -32 3 -40 16
-37 9 2 22 12 28 22 19 34 45 56 65 56 36 0 50 12 57 46 l6 34 334 0 334 0 0
-25 c0 -18 5 -25 20 -25 18 0 20 7 20 70 0 63 -2 70 -20 70 -15 0 -20 -7 -20
-25 l0 -25 -335 0 c-314 0 -335 1 -335 18 0 28 -29 62 -53 62 -27 1 -56 22
-71 52 -6 13 -19 24 -29 26 -14 3 -17 -4 -17 -37 l0 -41 -43 0 c-51 0 -97 19
-97 41 0 18 -19 39 -37 39 -8 0 -13 -14 -13 -40 l0 -40 -48 0 c-56 0 -102 18
-102 41 0 18 -19 39 -37 39 -8 0 -13 -13 -13 -38z m306 -86 c57 -48 26 -136
-48 -136 -63 0 -97 49 -73 107 24 56 76 69 121 29z m186 4 c31 -24 41 -66 22
-101 -14 -29 -33 -39 -69 -39 -36 0 -55 10 -69 39 -27 51 13 121 69 121 12 0
34 -9 47 -20z"/>
<path d="M4530 1858 c-43 -22 -135 -23 -170 -3 -38 22 -45 19 -58 -31 -9 -34
-10 -50 -1 -60 38 -46 222 -49 277 -4 l24 19 -19 48 -18 48 -35 -17z"/>
<path d="M13475 1859 c-37 -23 -121 -25 -172 -4 -19 8 -37 15 -38 15 -2 0 -10
-20 -18 -44 -17 -49 -12 -58 41 -85 30 -16 134 -17 188 -2 59 16 67 29 53 85
-6 26 -14 48 -18 50 -3 2 -19 -5 -36 -15z"/>
<path d="M4370 1678 c0 -15 5 -30 10 -33 13 -8 13 25 0 45 -8 12 -10 9 -10
-12z"/>
<path d="M4440 1685 c0 -8 5 -15 10 -15 6 0 10 7 10 15 0 8 -4 15 -10 15 -5 0
-10 -7 -10 -15z"/>
<path d="M13380 1691 c0 -6 5 -13 10 -16 6 -3 10 1 10 9 0 9 -4 16 -10 16 -5
0 -10 -4 -10 -9z"/>
<path d="M13310 1671 c0 -11 5 -23 10 -26 6 -4 10 5 10 19 0 14 -4 26 -10 26
-5 0 -10 -9 -10 -19z"/>
<path d="M4300 1613 c0 -18 27 -45 42 -42 11 3 8 10 -14 27 -15 13 -28 20 -28
15z"/>
<path d="M4549 1590 l-24 -19 22 -1 c12 0 27 9 33 20 14 26 -1 26 -31 0z"/>
<path d="M13240 1606 c0 -11 33 -36 47 -36 14 0 14 3 -2 20 -16 18 -45 28 -45
16z"/>
<path d="M13496 1595 c-23 -17 -13 -34 11 -19 19 12 29 34 16 34 -4 0 -17 -7
-27 -15z"/>
<path d="M5780 1545 c-7 -9 -10 -18 -7 -22 8 -7 37 15 37 28 0 14 -16 11 -30
-6z"/>
<path d="M6010 1552 c0 -5 9 -17 20 -27 23 -21 27 -4 4 19 -17 18 -24 20 -24
8z"/>
<path d="M14725 1544 c-9 -9 -14 -18 -11 -21 6 -6 46 20 46 29 0 13 -18 9 -35
-8z"/>
<path d="M14950 1551 c0 -13 29 -35 37 -28 7 8 -15 37 -28 37 -5 0 -9 -4 -9
-9z"/>
<path d="M5812 1383 c-24 -8 -46 -21 -48 -28 -3 -7 1 -36 8 -64 l13 -52 119 0
c65 0 122 3 126 8 13 15 30 91 24 106 -15 41 -161 59 -242 30z"/>
<path d="M14755 1385 c-58 -23 -60 -27 -41 -92 l18 -58 119 0 119 0 15 40 c25
70 24 78 -20 100 -52 25 -156 30 -210 10z"/>
<path d="M14996 1229 c-9 -48 -7 -117 4 -124 6 -4 10 23 10 74 0 45 -2 81 -4
81 -2 0 -6 -14 -10 -31z"/>
<path d="M6057 1243 c-11 -10 -8 -133 3 -133 6 0 10 30 10 70 0 70 -1 76 -13
63z"/>
<path d="M14703 1170 c0 -41 2 -58 4 -37 2 20 2 54 0 75 -2 20 -4 3 -4 -38z"/>
<path d="M5750 1170 c0 -33 4 -60 10 -60 6 0 10 27 10 60 0 33 -4 60 -10 60
-6 0 -10 -27 -10 -60z"/>
<path d="M5880 1121 c0 -16 19 -23 40 -16 30 10 24 25 -10 25 -16 0 -30 -4
-30 -9z"/>
<path d="M14820 1121 c0 -6 5 -13 11 -16 15 -10 61 4 54 15 -8 13 -65 13 -65
1z"/>
<path d="M5750 1010 c0 -40 4 -70 10 -70 6 0 10 30 10 70 0 40 -4 70 -10 70
-6 0 -10 -30 -10 -70z"/>
<path d="M6050 1006 c0 -41 5 -78 10 -81 6 -4 10 23 10 74 0 47 -4 81 -10 81
-6 0 -10 -31 -10 -74z"/>
<path d="M14698 1028 c-3 -28 -2 -63 2 -77 6 -18 9 -2 9 52 1 42 -1 77 -3 77
-2 0 -6 -23 -8 -52z"/>
<path d="M14997 1073 c-10 -9 -7 -114 3 -138 6 -13 9 7 9 63 1 82 0 88 -12 75z"/>
<path d="M4317 1031 l-42 -40 -3 -260 c-2 -144 -5 -261 -8 -261 -3 0 -14 5
-25 10 -30 16 -25 -14 6 -34 22 -14 25 -24 24 -64 -3 -111 2 -139 28 -164 23
-22 32 -23 149 -23 115 0 125 2 146 23 23 22 24 27 26 148 2 64 4 72 27 84 14
7 25 20 25 27 0 11 -4 11 -21 3 -11 -7 -23 -10 -25 -7 -3 2 -4 100 -3 218 1
118 1 224 1 236 0 37 -35 96 -71 120 -28 19 -48 23 -113 23 -78 0 -79 0 -121
-39z"/>
<path d="M13272 1044 c-58 -46 -65 -76 -57 -274 3 -97 3 -203 0 -237 -7 -60
-8 -61 -31 -53 -33 13 -32 -13 1 -28 23 -11 25 -18 27 -79 1 -38 2 -83 3 -102
0 -21 8 -40 23 -51 47 -39 264 -38 303 1 11 11 19 32 20 47 1 110 12 173 30
185 27 17 26 41 -1 27 -16 -9 -22 -8 -27 6 -3 9 -3 115 0 237 4 192 3 225 -11
256 -35 74 -67 91 -169 91 -69 0 -82 -3 -111 -26z"/>
<path d="M1960 1035 c-106 -40 -158 -70 -145 -84 3 -2 10 1 17 6 7 5 37 19 65
31 45 19 60 21 105 13 103 -18 313 -74 330 -88 9 -8 48 -68 87 -133 94 -157
94 -156 -13 -289 -45 -57 -89 -107 -97 -111 -8 -5 -61 -15 -118 -24 l-103 -15
-76 34 c-43 19 -90 42 -106 50 -16 9 -31 14 -33 11 -3 -2 55 -35 129 -71 l133
-67 140 5 c197 9 213 17 309 166 109 168 110 187 8 353 -40 66 -50 78 -87 104
-17 11 -52 36 -80 55 -63 44 -104 56 -233 69 -140 14 -157 13 -232 -15z"/>
<path d="M8070 1046 c-58 -6 -116 -18 -130 -25 -33 -18 -160 -110 -182 -132
-29 -30 -118 -204 -118 -232 0 -37 28 -104 66 -157 17 -25 39 -59 48 -77 19
-37 59 -78 98 -98 17 -10 77 -17 166 -21 l140 -7 114 57 c62 32 120 64 128 72
8 9 -7 4 -35 -9 -27 -14 -75 -37 -106 -51 l-56 -26 -89 15 c-49 8 -99 17 -110
20 -28 6 -194 222 -194 252 0 21 79 168 139 257 23 35 34 42 96 58 39 10 90
23 115 28 25 5 74 16 111 26 l65 17 65 -29 c35 -15 68 -33 72 -39 5 -6 7 -4 5
5 -2 8 -43 34 -91 58 -103 50 -156 57 -317 38z"/>
<path d="M10910 1036 c-81 -28 -150 -63 -150 -76 0 -5 29 5 65 22 60 28 69 29
118 20 82 -16 300 -71 322 -83 11 -5 34 -33 51 -62 17 -29 50 -82 73 -119 63
-103 59 -122 -39 -246 -43 -56 -87 -105 -97 -110 -17 -9 -98 -24 -186 -36 -31
-4 -57 3 -125 35 -48 22 -95 45 -106 50 -12 7 -16 7 -12 0 4 -6 62 -38 129
-72 l122 -61 140 6 c144 5 202 19 236 55 22 24 116 167 140 212 34 67 22 129
-44 234 -6 10 -22 36 -34 56 -21 36 -159 140 -213 161 -28 12 -224 37 -285 37
-22 0 -69 -10 -105 -23z"/>
<path d="M17010 1046 c-117 -14 -127 -18 -219 -88 -35 -26 -67 -48 -70 -48
-13 0 -123 -191 -131 -226 -12 -51 4 -96 72 -203 103 -164 111 -168 305 -178
l133 -6 119 59 c66 32 122 64 125 70 2 6 -40 -11 -94 -37 -96 -46 -100 -47
-157 -39 -88 13 -126 21 -153 31 -27 11 -190 220 -190 245 0 23 129 253 160
284 9 9 59 27 111 39 52 12 129 32 171 43 84 23 73 25 193 -27 40 -17 40 -17
22 3 -28 31 -174 85 -237 88 -30 1 -102 -3 -160 -10z"/>
<path d="M5771 879 c-6 -18 -11 -33 -11 -34 0 -2 15 -10 34 -19 63 -30 220
-19 264 19 1 1 -3 15 -10 31 -6 16 -12 30 -13 31 0 1 -19 -4 -40 -12 -53 -19
-127 -19 -172 0 -19 8 -37 15 -38 15 -2 0 -8 -14 -14 -31z"/>
<path d="M14720 890 c-17 -31 -11 -49 20 -65 39 -20 178 -20 226 0 32 13 35
18 29 42 -10 41 -16 44 -60 28 -50 -18 -119 -18 -168 -1 -34 13 -38 12 -47 -4z"/>
<path d="M925 747 l-30 -14 33 0 c38 0 174 -30 218 -48 39 -17 114 -138 114
-186 0 -29 -31 -78 -90 -140 -17 -18 -91 -39 -142 -40 -71 -1 7 -18 87 -18 92
-1 149 20 183 65 12 16 26 34 32 41 5 6 14 32 21 57 25 99 -28 193 -144 258
-41 23 -65 28 -150 33 -74 4 -110 2 -132 -8z"/>
<path d="M9128 750 c-30 -5 -66 -22 -101 -49 -142 -105 -156 -232 -37 -349 45
-44 72 -52 169 -51 71 0 136 17 73 18 -83 2 -121 21 -173 85 -62 78 -63 104
-10 195 22 37 46 72 53 78 18 15 131 44 203 52 l60 7 -40 12 c-44 13 -125 14
-197 2z"/>
<path d="M9870 746 l-35 -13 40 0 c48 -1 214 -40 236 -57 9 -6 35 -48 59 -94
50 -95 50 -94 -24 -183 -39 -47 -53 -57 -97 -67 -28 -7 -63 -12 -77 -12 -21 0
-24 -2 -12 -10 17 -11 141 -13 191 -3 56 11 130 97 154 181 11 38 -23 126 -67
171 -63 67 -121 90 -235 96 -69 3 -108 1 -133 -9z"/>
<path d="M18076 749 c-64 -10 -150 -70 -187 -129 -23 -36 -29 -56 -29 -105 0
-70 21 -117 76 -169 41 -38 69 -46 163 -45 93 1 121 14 48 22 -78 10 -95 20
-151 90 -42 53 -47 66 -43 97 4 34 66 149 90 168 17 14 133 43 202 51 l60 7
-40 12 c-45 13 -115 14 -189 1z"/>
<path d="M6987 744 c-4 -4 -7 -25 -7 -46 0 -28 -4 -38 -16 -38 -9 0 -31 -9
-49 -20 -40 -25 -50 -67 -23 -102 11 -15 18 -41 18 -74 0 -32 5 -54 13 -56 26
-10 37 4 37 48 0 41 3 46 30 56 33 11 63 57 54 82 -3 8 -9 45 -12 83 -5 50
-11 69 -22 71 -9 1 -19 0 -23 -4z"/>
<path d="M15930 725 c-5 -14 -10 -34 -10 -43 0 -11 -19 -25 -50 -39 -46 -20
-50 -25 -50 -55 0 -19 7 -43 15 -54 8 -10 15 -33 15 -51 1 -89 45 -106 56 -22
5 38 11 49 25 49 10 0 21 5 24 10 3 6 16 10 28 10 12 0 18 4 12 8 -5 4 -11 39
-13 79 -4 84 -13 125 -30 131 -7 2 -16 -8 -22 -23z"/>
<path d="M9370 720 c0 -5 5 -10 11 -10 5 0 7 5 4 10 -3 6 -8 10 -11 10 -2 0
-4 -4 -4 -10z"/>
<path d="M18310 726 c0 -3 9 -10 20 -16 11 -6 20 -8 20 -6 0 3 -9 10 -20 16
-11 6 -20 8 -20 6z"/>
<path d="M855 710 c-3 -6 1 -7 9 -4 18 7 21 14 7 14 -6 0 -13 -4 -16 -10z"/>
<path d="M9795 710 c-3 -6 1 -7 9 -4 18 7 21 14 7 14 -6 0 -13 -4 -16 -10z"/>
<path d="M5796 615 c-87 -31 -168 -132 -181 -225 -14 -103 36 -224 116 -277
152 -100 346 -49 425 112 23 48 26 64 22 132 -4 89 -22 134 -76 188 -77 78
-203 107 -306 70z m174 -170 c0 -12 -13 -15 -55 -15 -55 0 -55 0 -55 -31 0
-26 3 -30 18 -23 53 23 102 -9 102 -67 0 -52 -30 -79 -86 -79 -34 0 -47 5 -64
28 l-22 27 21 3 c12 2 28 -4 37 -12 18 -19 28 -20 55 -6 21 12 25 50 7 68 -15
15 -54 16 -63 2 -3 -5 -15 -10 -26 -10 -16 0 -19 7 -19 49 0 78 3 81 81 81 55
0 69 -3 69 -15z"/>
<path d="M14785 606 c-167 -78 -206 -296 -75 -426 73 -74 163 -96 269 -64 136
40 211 190 170 339 -15 54 -110 149 -164 164 -67 18 -144 13 -200 -13z m155
-206 c0 -56 3 -70 15 -70 8 0 15 -7 15 -15 0 -8 -7 -15 -15 -15 -8 0 -15 -9
-15 -20 0 -13 -7 -20 -20 -20 -13 0 -20 7 -20 20 0 17 -7 20 -50 20 -45 0 -50
2 -50 22 0 12 19 50 41 85 35 53 46 63 70 63 l29 0 0 -70z"/>
<path d="M14875 399 c-42 -65 -42 -69 -2 -69 l34 0 2 55 c0 30 -1 55 -4 55 -3
0 -16 -18 -30 -41z"/>
<path d="M15762 585 c0 -16 2 -22 5 -12 2 9 2 23 0 30 -3 6 -5 -1 -5 -18z"/>
<path d="M18236 341 c-4 -5 3 -7 14 -4 23 6 26 13 6 13 -8 0 -17 -4 -20 -9z"/>
<path d="M3283 323 c-21 -7 -15 -33 7 -33 11 0 20 3 20 8 0 15 -15 29 -27 25z"/>
<path d="M12221 317 c-9 -11 -8 -17 4 -27 12 -10 16 -9 21 5 9 23 -10 40 -25
22z"/>
<path d="M1495 271 c3 -6 38 -17 79 -26 80 -18 94 -30 131 -113 l18 -43 -31
-44 -32 -45 39 0 c53 0 76 34 75 111 -1 51 -5 61 -36 94 -20 21 -58 46 -84 56
-51 20 -170 26 -159 10z"/>
<path d="M8636 265 c-84 -30 -128 -85 -128 -159 0 -25 8 -58 18 -76 15 -25 24
-30 57 -30 l39 0 -26 34 c-35 46 -33 87 4 142 36 51 46 58 123 74 31 7 57 17
57 22 0 13 -101 8 -144 -7z"/>
<path d="M10446 270 c5 -5 38 -17 74 -26 78 -20 84 -23 115 -86 32 -64 31 -76
-6 -121 l-30 -37 39 0 c45 0 66 19 77 68 18 86 -27 158 -121 193 -51 20 -166
27 -148 9z"/>
<path d="M17592 270 c-50 -12 -111 -59 -128 -99 -18 -43 -14 -110 10 -146 13
-20 25 -25 57 -25 l41 0 -31 35 c-38 44 -39 73 -5 131 32 54 51 67 127 84 32
7 60 17 63 22 6 10 -89 9 -134 -2z"/>
<path d="M3283 239 c-10 -4 -30 -8 -45 -8 -25 -1 -28 -5 -28 -35 0 -41 10 -50
82 -71 55 -16 58 -16 105 7 50 24 68 57 43 82 -15 15 -134 34 -157 25z"/>
<path d="M12237 244 c-4 -4 -24 -10 -44 -13 -32 -5 -39 -11 -41 -32 -4 -36 19
-56 84 -75 53 -15 57 -15 102 6 46 22 62 36 62 55 0 24 -21 38 -69 46 -29 4
-60 10 -70 14 -9 3 -20 2 -24 -1z"/>
<path d="M3330 55 c0 -8 9 -15 20 -15 11 0 20 7 20 15 0 8 -9 15 -20 15 -11 0
-20 -7 -20 -15z"/>
<path d="M12276 61 c-7 -11 18 -33 27 -24 4 3 7 12 7 20 0 15 -26 18 -34 4z"/>
</g>
</svg>
